<svg width="414" height="828" viewBox="0 0 414 828" fill="none" xmlns="http://www.w3.org/2000/svg">
<path d="M14.0017 247.447C51.3765 228.725 92.9946 217.392 135.063 207.557C145.011 205.232 154.984 202.99 164.932 200.754C197.038 193.537 228.882 186.38 258.724 176.663C297.823 163.932 333.545 146.793 362.016 119.321C389.628 92.6769 410.388 56.3438 420.819 4.96809L427.274 785.5H14.1425C14.0713 785.277 13.9664 784.948 13.8295 784.516C13.5511 783.636 13.1401 782.33 12.6104 780.623C11.551 777.208 10.0164 772.189 8.11623 765.774C4.31597 752.944 -0.946236 734.532 -6.79322 712.201C-18.4876 667.54 -32.5195 607.215 -41.8735 544.551C-51.2286 481.881 -55.8999 416.903 -48.8905 362.924C-41.878 308.922 -23.1975 266.081 14.0017 247.447Z" fill="#71588F" stroke="black"/>
<path d="M-1.22222 257C119.778 115 307.778 278 412.778 83V828H-1.22222C-1.22222 828 -122.222 399 -1.22222 257Z" fill="#602F9E"/>
<path d="M-1.22222 257C119.778 115 307.778 278 412.778 83V828H-1.22222C-1.22222 828 -122.222 399 -1.22222 257Z" fill="url(#paint0_linear)"/>
<defs>
<linearGradient id="paint0_linear" x1="413" y1="83" x2="0.99999" y2="828" gradientUnits="userSpaceOnUse">
<stop stop-color="#010001"/>
<stop offset="0.411458" stop-opacity="0.29"/>
</linearGradient>
</defs>
</svg>
