<svg width="587" height="1000" fill="none" xmlns="http://www.w3.org/2000/svg">
  <g clip-path="url(#Slice_4__clip0)">
    <path d="M12.32 307.545c53.855-26.978 113.825-43.308 174.444-57.48 14.333-3.35 28.704-6.581 43.039-9.803 46.264-10.399 92.148-20.712 135.15-34.714 56.341-18.344 107.814-43.041 148.839-82.627 39.787-38.393 69.702-90.747 84.733-164.777l9.3 1124.706H12.522c-.102-.32-.254-.79-.45-1.41-.402-1.27-.994-3.15-1.757-5.61a1773.77 1773.77 0 01-6.476-21.4c-5.476-18.49-13.059-45.02-21.484-77.195-16.851-64.355-37.07-151.281-50.55-241.576-13.48-90.306-20.21-183.936-10.11-261.717 10.104-77.815 37.022-139.546 90.624-166.397z" fill="#71588F" stroke="#000" stroke-width="1.441"/>
    <path d="M-9.618 319.149C34.688 134.707 435.637 351.57 586.937 70.584V1144.1H-9.618s-44.305-640.509 0-824.951z" fill="#602F9E"/>
    <path d="M-9.618 319.149C34.688 134.707 435.637 351.57 586.937 70.584V1144.1H-9.618s-44.305-640.509 0-824.951z" fill="url(#Slice_4__paint0_linear)"/>
    <g clip-path="url(#Slice_4__clip1)">
      <path d="M280.902 452.964v-1.011c2.107 0 4.247-.042 6.359-.122l.042 1.009c-2.126.082-4.279.123-6.401.124zm-6.399-.117c-2.119-.079-4.268-.2-6.389-.36l.083-1.007c2.107.159 4.243.279 6.348.357l-.042 1.01zm19.19-.373l-.085-1.007c2.104-.161 4.232-.364 6.327-.606l.127 1.004c-2.109.243-4.251.447-6.369.609zm-31.949-.589a168.476 168.476 0 01-6.34-.846l.168-.998c2.08.319 4.198.601 6.297.841l-.125 1.003zm44.656-.873l-.169-.998c2.078-.32 4.183-.687 6.255-1.088l.211.99c-2.086.405-4.204.773-6.297 1.096zm-57.294-1.062a168.042 168.042 0 01-6.247-1.332l.252-.982c2.046.478 4.133.923 6.205 1.323l-.21.991zm69.837-1.373l-.254-.981a161.93 161.93 0 006.143-1.568l.295.971a162.676 162.676 0 01-6.184 1.578zm-82.27-1.531a164.023 164.023 0 01-6.114-1.81l.335-.959c2 .635 4.043 1.24 6.073 1.798l-.294.971zm94.565-1.864l-.336-.958a161.64 161.64 0 005.989-2.038l.376.945c-1.986.72-4.015 1.41-6.029 2.051zm-106.727-1.997a164.963 164.963 0 01-5.953-2.282l.415-.93c1.949.791 3.939 1.554 5.914 2.267l-.376.945zm118.677-2.33l-.416-.929a162.715 162.715 0 005.782-2.486l.455.912a163.076 163.076 0 01-5.821 2.503zm-130.48-2.463a162.104 162.104 0 01-5.736-2.733l.493-.894c1.868.936 3.785 1.849 5.698 2.715l-.455.912zm142.014-2.766l-.494-.893a162.924 162.924 0 005.558-2.925l.531.874a164.26 164.26 0 01-5.595 2.945v-.001zm-153.365-2.919a161.128 161.128 0 01-5.483-3.165l.567-.853a160.671 160.671 0 005.447 3.143l-.531.875zm164.427-3.183l-.567-.853a159.002 159.002 0 005.296-3.343l.602.831a158.478 158.478 0 01-5.331 3.366v-.001zm-175.254-3.353a160.04 160.04 0 01-5.196-3.572l.637-.808a159.549 159.549 0 005.162 3.549l-.603.831zm185.773-3.579l-.638-.807a158.453 158.453 0 005.001-3.738l.671.782a160.562 160.562 0 01-5.034 3.763zm-196.009-3.762a157.606 157.606 0 01-4.877-3.957l.702-.755a160.647 160.647 0 004.845 3.93l-.67.782zm205.916-3.954l-.703-.756a157.553 157.553 0 004.673-4.11l.733.729a158.326 158.326 0 01-4.703 4.137zm-215.5-4.141a160.055 160.055 0 01-4.527-4.314l.764-.701a157.998 157.998 0 004.498 4.286l-.735.729zm224.731-4.31l-.764-.701a155.039 155.039 0 004.316-4.454l.792.671a155.703 155.703 0 01-4.344 4.484zm-233.6-4.486a154.544 154.544 0 01-4.15-4.644l.821-.639a152.299 152.299 0 004.122 4.612l-.793.671zm242.098-4.645l-.821-.639a153.874 153.874 0 003.929-4.772l.846.608a154.674 154.674 0 01-3.954 4.803zm-250.198-4.795a154.883 154.883 0 01-3.745-4.943l.872-.575a151.365 151.365 0 003.72 4.91l-.847.608zm257.903-4.96l-.871-.574a154.498 154.498 0 003.515-5.059l.895.541a152.435 152.435 0 01-3.539 5.092zm-265.181-5.064a153.188 153.188 0 01-3.315-5.21l.917-.507a151.185 151.185 0 003.293 5.176l-.895.541zm272.043-5.254l-.917-.506a149.919 149.919 0 003.079-5.315l.937.471c-.988 1.79-2.03 3.59-3.099 5.35zm-278.449-5.289c-.987-1.788-1.95-3.62-2.862-5.445l.957-.434a148.028 148.028 0 002.843 5.408l-.938.471zm284.419-5.528l-.957-.435a147.124 147.124 0 002.618-5.537l.975.397a146.768 146.768 0 01-2.636 5.575zm-289.91-5.464a146.671 146.671 0 01-2.391-5.644l.991-.359a144.662 144.662 0 002.375 5.605l-.975.398zm294.945-5.786l-.991-.358a149.88 149.88 0 002.14-5.726l1.005.32a149.556 149.556 0 01-2.154 5.764zM130.02 349.55a145.115 145.115 0 01-1.909-5.826l1.018-.281a145.253 145.253 0 001.896 5.786l-1.005.321zm303.547-5.988l-1.018-.281a144.84 144.84 0 001.641-5.856l1.029.241a146.823 146.823 0 01-1.652 5.896zm-307.115-5.732c-.509-1.968-.982-3.97-1.407-5.953l1.038-.202c.422 1.969.892 3.959 1.398 5.913l-1.029.242zm310.167-6.118l-1.039-.202c.419-1.968.802-3.974 1.139-5.963l1.046.161a144.39 144.39 0 01-1.146 6.004zm-312.728-5.838a146.272 146.272 0 01-.898-6.042l1.052-.121a144.3 144.3 0 00.893 6.001l-1.047.162zm314.765-6.21l-1.052-.121c.252-2 .464-4.029.631-6.031l1.057.08a145.101 145.101 0 01-.636 6.072zm-316.305-5.903a145.738 145.738 0 01-.388-6.091l1.059-.041c.086 2.01.215 4.046.385 6.051l-1.056.081zm317.322-6.26l-1.059-.04c.083-2.013.125-4.052.125-6.06v-.335h1.06v.332c0 2.024-.042 4.076-.126 6.103zm-316.784-5.933h-1.06l.001-.17c0-1.971.04-3.967.119-5.93l1.059.039c-.079 1.95-.119 3.933-.119 5.894v.167zm315.71-6.562a142.996 142.996 0 00-.392-6.05l1.057-.083c.173 2.022.306 4.072.394 6.091l-1.059.042zm-315.22-5.551l-1.056-.079c.166-2.023.378-4.066.628-6.073l1.053.12a145.592 145.592 0 00-.625 6.032zm314.183-6.53a143.526 143.526 0 00-.899-6l1.046-.163c.343 2.002.648 4.034.905 6.041l-1.052.122zm-312.68-5.506l-1.047-.159c.336-2.001.719-4.022 1.14-6.005l1.039.199a143.713 143.713 0 00-1.132 5.965zm310.628-6.456a145.089 145.089 0 00-1.405-5.911l1.029-.244c.51 1.962.986 3.965 1.414 5.952l-1.038.203zm-308.113-5.425l-1.029-.24a145.308 145.308 0 011.645-5.898l1.019.28a144.983 144.983 0 00-1.635 5.858zm305.054-6.339c-.59-1.93-1.23-3.876-1.903-5.784l1.005-.322a144.53 144.53 0 011.915 5.823l-1.017.283zm-301.537-5.309l-1.006-.319a146.727 146.727 0 012.148-5.767l.991.358a145.737 145.737 0 00-2.133 5.728zm297.487-6.181a146.86 146.86 0 00-2.382-5.603l.974-.398c.833 1.851 1.64 3.748 2.398 5.64l-.99.361zm-292.979-5.186l-.975-.396a148.234 148.234 0 012.63-5.578l.958.433a147.847 147.847 0 00-2.613 5.541zm287.98-5.925a148.121 148.121 0 00-2.849-5.405l.936-.472a146.277 146.277 0 012.869 5.442l-.956.435zm-282.522-5.05l-.939-.469a151.16 151.16 0 013.093-5.354l.918.505a150.02 150.02 0 00-3.072 5.318zm276.596-5.648c-1.06-1.74-2.17-3.48-3.299-5.173l.894-.542a150.849 150.849 0 013.321 5.207l-.916.508zm-270.229-4.864l-.896-.54a151.623 151.623 0 013.534-5.096l.872.574a150.61 150.61 0 00-3.51 5.062zm263.414-5.352a150.968 150.968 0 00-3.725-4.906l.846-.609a153.004 153.004 0 013.75 4.939l-.871.576zm-256.184-4.633l-.848-.607a153.615 153.615 0 013.95-4.807l.821.639a152.96 152.96 0 00-3.923 4.775zm248.529-5.034a152.124 152.124 0 00-4.127-4.608l.792-.672a155.567 155.567 0 014.155 4.639l-.82.641zm-240.486-4.362l-.793-.67a155.45 155.45 0 014.339-4.488l.765.699a154.78 154.78 0 00-4.311 4.459zm232.041-4.695a158.031 158.031 0 00-4.503-4.28l.733-.73a157.496 157.496 0 014.533 4.309l-.763.701zm-223.238-4.054l-.735-.728a159.996 159.996 0 014.7-4.142l.704.756a155.193 155.193 0 00-4.669 4.114zm214.056-4.333a156.771 156.771 0 00-4.849-3.925l.669-.783a157.69 157.69 0 014.882 3.951l-.702.757zm-204.551-3.714l-.672-.781a158.261 158.261 0 015.03-3.768l.638.806a158.044 158.044 0 00-4.996 3.743zm194.689-3.949a157.717 157.717 0 00-5.165-3.543l.601-.832a159.903 159.903 0 015.201 3.567l-.637.808zm-184.544-3.343l-.604-.831a160.04 160.04 0 015.327-3.37l.569.853a157.948 157.948 0 00-5.292 3.348zm174.067-3.544a161.579 161.579 0 00-5.451-3.138l.53-.875a164.708 164.708 0 015.487 3.158l-.566.855zm-163.348-2.946l-.532-.874a163.34 163.34 0 015.591-2.95l.495.893a160.28 160.28 0 00-5.554 2.931zm152.317-3.118a160.736 160.736 0 00-5.701-2.709l.454-.913c1.924.868 3.855 1.786 5.739 2.727l-.492.895zm-141.092-2.526l-.456-.912a163.044 163.044 0 015.818-2.509l.417.929a162.682 162.682 0 00-5.779 2.492zm129.578-2.67a161.814 161.814 0 00-5.916-2.261l.374-.946c1.991.717 3.996 1.483 5.956 2.277l-.414.93zm-117.92-2.089l-.377-.945c1.983-.721 4.01-1.413 6.026-2.057l.337.958c-2.002.64-4.016 1.328-5.986 2.044zm105.994-2.203a163.305 163.305 0 00-6.075-1.791l.293-.971a163.55 163.55 0 016.115 1.803l-.333.959zm-93.939-1.652l-.296-.97a163.634 163.634 0 016.182-1.586l.254.981c-2.05.484-4.116 1.013-6.14 1.575zm81.718-1.694a162.333 162.333 0 00-6.207-1.316l.209-.991c2.086.401 4.189.847 6.249 1.325l-.251.982zm-69.376-1.216l-.213-.99c2.078-.406 4.197-.777 6.296-1.103l.171.997c-2.086.325-4.19.693-6.254 1.096zm56.911-1.175a164.598 164.598 0 00-6.298-.834l.125-1.004c2.109.238 4.242.521 6.34.84l-.167.998zm-44.362-.775l-.128-1.003c2.108-.245 4.251-.452 6.368-.616l.086 1.007c-2.104.163-4.232.369-6.326.612zm31.736-.651a169.638 169.638 0 00-6.348-.351l.041-1.01c2.125.077 4.274.196 6.39.353l-.083 1.008zm-19.063-.331l-.044-1.01c2.12-.083 4.273-.127 6.4-.13l.002 1.01c-2.113.004-4.253.047-6.358.13z" fill="#302E3F"/>
      <path d="M460.453 253.426v-27.504c-8.962-1.962-17.399-5.678-24.776-10.913-7.376-5.234-13.531-11.873-18.075-19.495v.001a13.034 13.034 0 01-7.536 2.364h-22.909c6.113 14.525 16.085 27.283 28.936 37.022 12.851 9.739 28.138 16.123 44.36 18.525z" fill="#3F3D56"/>
      <path d="M460.453 224.346v-26.422a14.122 14.122 0 00-1.173-5.632 14.68 14.68 0 00-3.347-4.775 15.478 15.478 0 00-5.009-3.19 16.069 16.069 0 00-5.908-1.119h-22.242v2.551a11.606 11.606 0 01-1.018 4.761 12.093 12.093 0 01-2.903 3.994c4.394 7.443 10.36 13.938 17.52 19.072 7.161 5.135 15.36 8.799 24.08 10.76zm-106.99-26.467h-14.325c-3.371-.001-6.604-1.278-8.987-3.551s-3.722-5.355-3.721-8.569v-2.551h-20.87a16.09 16.09 0 00-5.908 1.119 15.504 15.504 0 00-5.008 3.191 14.668 14.668 0 00-3.346 4.774 14.124 14.124 0 00-1.175 5.632v327.479a14.099 14.099 0 001.171 5.632 14.661 14.661 0 003.346 4.775 15.49 15.49 0 005.011 3.187 16.05 16.05 0 005.909 1.112h139.456c.636.002 1.272-.035 1.903-.111 3.734-.444 7.169-2.171 9.661-4.859 2.492-2.687 3.87-6.149 3.874-9.736V284.33c-50.721-5.603-92.984-40.104-106.991-86.451z" fill="#3F3D56"/>
      <path d="M385.419 197.879h-30.281c13.938 45.489 55.475 79.332 105.316 84.91v-27.797c-16.656-2.428-32.352-8.98-45.519-19.003-13.167-10.022-23.345-23.163-29.516-38.11z" fill="#3F3D56"/>
      <path opacity=".1" d="M340.621 535.047c.384-.364 9.501-9.166 17.229-30.05 7.09-19.161 14.244-52.573 8.062-102.943-11.712-95.422 48.346-156.235 48.955-156.839l-1.778-1.627c-.154.153-15.596 15.628-29.334 42.795-18.186 36.024-25.225 76.243-20.291 115.944 11.692 95.26-24.218 130.708-24.581 131.055l1.738 1.665z" fill="#fff"/>
      <path opacity=".1" d="M433.308 243.616c8.846 0 16.017-6.836 16.017-15.268 0-8.433-7.171-15.269-16.017-15.269-8.845 0-16.016 6.836-16.016 15.269 0 8.432 7.171 15.268 16.016 15.268zm-63.098 43.346c8.846 0 16.016-6.836 16.016-15.269 0-8.432-7.17-15.268-16.016-15.268-8.845 0-16.016 6.836-16.016 15.268 0 8.433 7.171 15.269 16.016 15.269zm24.161 44.312c8.845 0 16.016-6.836 16.016-15.268 0-8.433-7.171-15.269-16.016-15.269-8.846 0-16.017 6.836-16.017 15.269 0 8.432 7.171 15.268 16.017 15.268zm-48.584 21.335c8.846 0 16.017-6.836 16.017-15.269 0-8.432-7.171-15.268-16.017-15.268-8.845 0-16.016 6.836-16.016 15.268 0 8.433 7.171 15.269 16.016 15.269zm40.389 60.18c8.845 0 16.016-6.836 16.016-15.269s-7.171-15.269-16.016-15.269c-8.846 0-16.017 6.836-16.017 15.269s7.171 15.269 16.017 15.269z" fill="#000"/>
      <path opacity=".1" d="M331.081 533.405s24.911-32.89-14.753-71.139l14.753 71.139zm19.306 3.792s17.025-37.179 71.747-24.089l-71.747 24.089z" fill="#fff"/>
      <path d="M443.162 403.445h-135.45v27.378h135.45v-27.378z" fill="#00FF75" fill-opacity=".52"/>
      <path d="M349.341 351.903c-5.399-7.651-7.743-16.892-6.607-26.048 1.135-9.156 5.675-17.621 12.796-23.86 7.121-6.239 16.352-9.839 26.018-10.147 9.666-.307 19.128 2.698 26.669 8.47 7.542 5.773 12.663 13.931 14.437 22.994 1.773 9.064.081 18.434-4.771 26.41-4.851 7.976-12.54 14.031-21.673 17.066a42.303 42.303 0 01-28.105-.522 12.334 12.334 0 01-3.175 5.287 13.182 13.182 0 01-5.424 3.223c-2.06.63-4.251.764-6.378.388a13.38 13.38 0 01-5.81-2.538 12.539 12.539 0 01-3.855-4.86 11.952 11.952 0 01-.981-6.021 12.102 12.102 0 012.129-5.744 12.875 12.875 0 014.73-4.098z" fill="#F2F2F2"/>
      <path d="M391.469 316.593c-.962-.53-4.611 3.72-8.638 9.905-4.027-6.185-7.675-10.435-8.638-9.905-1.07.588 1.562 6.863 5.936 14.263-4.374 7.4-7.006 13.675-5.936 14.263.963.53 4.611-3.72 8.638-9.905 4.027 6.185 7.676 10.435 8.638 9.905 1.07-.588-1.562-6.863-5.935-14.263 4.373-7.4 7.005-13.675 5.935-14.263z" fill="#9314D6"/>
      <path d="M197.693 382.059s-4.311 17.613-.615 17.613c3.695 0 11.085-8.22 11.085-8.22v-4.696l-10.47-4.697z" fill="#A0616A"/>
      <path d="M206.623 366.501l-11.085 16.438h8.006l3.079-16.438z" fill="#D0CDE1"/>
      <path d="M214.629 509.753h-14.78v11.742h14.78v-11.742zm32.64-1.762l3.079 13.504 15.396-3.523-3.695-11.742-14.78 1.761z" fill="#A0616A"/>
      <path d="M201.08 386.462s-4.926 2.348-5.542 12.916c-.616 10.568 1.847 38.162 1.847 38.162s-2.463 12.329 0 23.484c2.464 11.154-2.463 51.664.616 51.664s19.091 1.761 19.707 0c.616-1.761 1.232-28.181 1.232-28.181s4.927-13.503 0-21.722c0 0 11.085 8.806 11.085 11.155 0 2.348 11.701 38.748 17.244 39.335 5.542.587 20.939-.587 17.859-5.871-3.079-5.284-10.469-29.355-10.469-29.355s-5.543-17.613-15.396-25.245l4.927-37.574s10.469-25.245 4.311-28.768c-6.159-3.523-47.421 0-47.421 0z" fill="#030304"/>
      <path d="M219.556 290.765c8.843 0 16.012-6.834 16.012-15.264 0-8.431-7.169-15.265-16.012-15.265s-16.012 6.834-16.012 15.265c0 8.43 7.169 15.264 16.012 15.264z" fill="#A0616A"/>
      <path d="M211.55 284.894s6.158 19.374 4.311 21.723c-1.848 2.348 19.707-12.916 19.707-12.916s-8.006-5.284-4.927-12.917l-19.091 4.11z" fill="#A0616A"/>
      <path d="M237.415 291.939s-7.39 2.349-11.085 6.458c-3.695 4.11-12.317 4.697-12.317 4.697s-7.622 4.092-10.469 11.155c-3.035 7.527-1.271 18.125 0 20.548 2.463 4.697 2.463 16.439 2.463 16.439l-3.079 27.007s-11.085 9.98-2.463 11.155c8.621 1.174 24.018-.588 33.255 0 9.238.587 19.707 1.761 16.628-4.11-3.079-5.871-6.774-9.981-3.079-21.723 2.891-9.188 2.766-43.543 2.575-58.05a11.272 11.272 0 00-1.629-5.673 11.963 11.963 0 00-4.321-4.197l-6.479-3.706z" fill="#D0CDE1"/>
      <path d="M213.398 381.765s-2.802 5.881-3.08 9.394c-2.155 27.3 13.549 0 13.549 0v-4.697l-10.469-4.697z" fill="#A0616A"/>
      <path d="M256.507 516.798s-9.238-6.458-9.238-2.936c0 3.523-10.469 17.613-10.469 17.613s-17.244 11.742-3.08 11.742c14.165 0 20.323-2.348 20.323-2.348l14.781-9.394s3.695-4.109 2.463-8.806c-1.232-4.697-5.543-11.155-5.543-11.155s-4.926 6.458-9.237 5.284z" fill="#0D0D0E"/>
      <path d="M202.312 518.559s-1.231-5.871-5.542-2.935c-4.311 2.935-16.012 11.742-16.012 11.742s-21.555 4.697-8.006 10.567c13.548 5.871 44.341-2.348 44.341-2.348s1.231-18.787 0-18.2c-1.232.587-14.165 2.348-14.781 1.174z" fill="#060607"/>
      <path opacity=".1" d="M228.486 310.433l1.847 35.813-17.902 34.566-3.036-1.101 18.475-32.291.616-36.987z" fill="#000"/>
      <path d="M242.958 299.572l4.619-.881s13.856 9.687 9.545 29.061c-4.31 19.375-23.402 48.729-23.402 48.729s-4.311 5.284-5.542 6.459c-1.232 1.174-3.695 0-2.464 1.761 1.232 1.761-1.847 2.935-1.847 2.935s-13.549 0-12.317-4.696c1.232-4.697 22.17-38.162 22.17-38.162l-3.079-31.116s-2.463-15.265 12.317-14.09z" fill="#D0CDE1"/>
      <path opacity=".1" d="M248.809 353.878v-4.11l-20.939 32.878 20.939-28.768z" fill="#000"/>
      <path d="M208.194 261.36l-2.647-1.01s5.535-5.809 13.236-5.304l-2.166-2.273s5.294-2.021 10.107 3.283c2.53 2.788 5.457 6.066 7.282 9.757h2.835l-1.183 2.484 4.141 2.484-4.251-.447a13.123 13.123 0 01-.402 6.433l.114 1.963s-4.927-7.267-4.927-8.278v2.526s-2.647-2.273-2.647-3.788l-1.443 1.768-.722-2.779-8.904 2.779 1.444-2.274-5.535.758 2.166-2.778s-6.257 3.283-6.498 6.061c-.24 2.779-3.369 6.315-3.369 6.315l-1.443-2.526s-2.166-11.366 4.812-15.154z" fill="#000"/>
    </g>
    <path d="M112.368 631.389c-2.467 0-4.703-.531-6.709-1.591-1.982-1.084-3.55-2.571-4.703-4.461-1.13-1.914-1.695-4.07-1.695-6.467 0-2.398.565-4.542 1.695-6.433a12.006 12.006 0 014.703-4.461c2.006-1.084 4.254-1.625 6.744-1.625 2.098 0 3.989.368 5.672 1.106 1.706.738 3.135 1.799 4.288 3.182l-3.597 3.32c-1.637-1.891-3.666-2.836-6.086-2.836-1.499 0-2.836.334-4.012 1.003a7.003 7.003 0 00-2.767 2.732c-.645 1.176-.968 2.513-.968 4.012 0 1.498.323 2.835.968 4.011a7.253 7.253 0 002.767 2.767c1.176.645 2.513.968 4.012.968 2.42 0 4.449-.957 6.086-2.87l3.597 3.32a11.218 11.218 0 01-4.288 3.216c-1.706.738-3.609 1.107-5.707 1.107zm24.995 0c-2.513 0-4.784-.542-6.813-1.626-2.005-1.083-3.585-2.57-4.737-4.461-1.13-1.914-1.695-4.058-1.695-6.432 0-2.375.565-4.508 1.695-6.398 1.152-1.914 2.732-3.412 4.737-4.496 2.029-1.084 4.3-1.625 6.813-1.625s4.773.541 6.778 1.625c2.006 1.084 3.586 2.582 4.738 4.496 1.153 1.89 1.729 4.023 1.729 6.398 0 2.374-.576 4.518-1.729 6.432-1.152 1.891-2.732 3.378-4.738 4.461-2.005 1.084-4.265 1.626-6.778 1.626zm0-4.773c1.43 0 2.721-.323 3.874-.968a7.083 7.083 0 002.697-2.767c.669-1.176 1.003-2.513 1.003-4.011 0-1.499-.334-2.836-1.003-4.012a6.838 6.838 0 00-2.697-2.732c-1.153-.669-2.444-1.003-3.874-1.003-1.429 0-2.72.334-3.873 1.003a7.06 7.06 0 00-2.732 2.732c-.646 1.176-.968 2.513-.968 4.012 0 1.498.322 2.835.968 4.011a7.318 7.318 0 002.732 2.767c1.153.645 2.444.968 3.873.968zm39.658-19.85v24.208h-4.599l-12.07-14.698v14.698h-5.533v-24.208h4.634l12.035 14.697v-14.697h5.533zm27.93 0v24.208h-4.6l-12.069-14.698v14.698h-5.533v-24.208h4.634l12.035 14.697v-14.697h5.533zm24.471 19.712v4.496h-18.744v-24.208h18.295v4.495h-12.727v5.257h11.24v4.357h-11.24v5.603h13.176zm15.976 4.911c-2.467 0-4.703-.531-6.709-1.591-1.983-1.084-3.551-2.571-4.704-4.461-1.129-1.914-1.694-4.07-1.694-6.467 0-2.398.565-4.542 1.694-6.433a12.002 12.002 0 014.704-4.461c2.006-1.084 4.253-1.625 6.743-1.625 2.098 0 3.989.368 5.672 1.106 1.706.738 3.136 1.799 4.288 3.182l-3.596 3.32c-1.637-1.891-3.666-2.836-6.087-2.836-1.499 0-2.836.334-4.012 1.003a7.001 7.001 0 00-2.766 2.732c-.646 1.176-.969 2.513-.969 4.012 0 1.498.323 2.835.969 4.011a7.25 7.25 0 002.766 2.767c1.176.645 2.513.968 4.012.968 2.421 0 4.45-.957 6.087-2.87l3.596 3.32a11.21 11.21 0 01-4.288 3.216c-1.706.738-3.608 1.107-5.706 1.107zm18.556-20.058h-7.747v-4.565h21.096v4.565h-7.747v19.643h-5.602v-19.643zm16.363-4.565h5.603v24.208h-5.603v-24.208zm23.071 24.623c-2.513 0-4.784-.542-6.813-1.626-2.005-1.083-3.585-2.57-4.737-4.461-1.13-1.914-1.695-4.058-1.695-6.432 0-2.375.565-4.508 1.695-6.398 1.152-1.914 2.732-3.412 4.737-4.496 2.029-1.084 4.3-1.625 6.813-1.625s4.773.541 6.778 1.625c2.006 1.084 3.586 2.582 4.738 4.496 1.153 1.89 1.729 4.023 1.729 6.398 0 2.374-.576 4.518-1.729 6.432-1.152 1.891-2.732 3.378-4.738 4.461-2.005 1.084-4.265 1.626-6.778 1.626zm0-4.773c1.43 0 2.721-.323 3.874-.968a7.083 7.083 0 002.697-2.767c.669-1.176 1.003-2.513 1.003-4.011 0-1.499-.334-2.836-1.003-4.012a6.838 6.838 0 00-2.697-2.732c-1.153-.669-2.444-1.003-3.874-1.003-1.429 0-2.72.334-3.873 1.003a7.06 7.06 0 00-2.732 2.732c-.646 1.176-.968 2.513-.968 4.012 0 1.498.322 2.835.968 4.011a7.318 7.318 0 002.732 2.767c1.153.645 2.444.968 3.873.968zm39.658-19.85v24.208h-4.599l-12.07-14.698v14.698h-5.533v-24.208h4.634l12.035 14.697v-14.697h5.533zm34.266 19.712v4.496h-18.744v-24.208h18.294v4.495h-12.726v5.257h11.239v4.357h-11.239v5.603h13.176zm19.881 4.496l-4.668-6.744h-5.153v6.744h-5.603v-24.208h10.479c2.144 0 4 .357 5.568 1.072 1.591.714 2.813 1.729 3.666 3.043.853 1.314 1.279 2.87 1.279 4.669 0 1.798-.438 3.354-1.314 4.668-.853 1.291-2.075 2.283-3.666 2.974l5.43 7.782h-6.018zm-.103-15.424c0-1.361-.438-2.398-1.315-3.113-.876-.738-2.155-1.106-3.838-1.106h-4.565v8.438h4.565c1.683 0 2.962-.369 3.838-1.107.877-.738 1.315-1.775 1.315-3.112zm25.534 15.424l-4.669-6.744h-5.153v6.744H407.2v-24.208h10.479c2.144 0 4 .357 5.567 1.072 1.591.714 2.813 1.729 3.666 3.043.853 1.314 1.28 2.87 1.28 4.669 0 1.798-.438 3.354-1.314 4.668-.853 1.291-2.075 2.283-3.666 2.974l5.429 7.782h-6.017zm-.104-15.424c0-1.361-.438-2.398-1.314-3.113-.876-.738-2.156-1.106-3.839-1.106h-4.565v8.438h4.565c1.683 0 2.963-.369 3.839-1.107.876-.738 1.314-1.775 1.314-3.112zm21.834 15.839c-2.513 0-4.784-.542-6.813-1.626-2.005-1.083-3.585-2.57-4.738-4.461-1.129-1.914-1.694-4.058-1.694-6.432 0-2.375.565-4.508 1.694-6.398 1.153-1.914 2.733-3.412 4.738-4.496 2.029-1.084 4.3-1.625 6.813-1.625s4.773.541 6.778 1.625c2.006 1.084 3.586 2.582 4.738 4.496 1.153 1.89 1.729 4.023 1.729 6.398 0 2.374-.576 4.518-1.729 6.432-1.152 1.891-2.732 3.378-4.738 4.461-2.005 1.084-4.265 1.626-6.778 1.626zm0-4.773c1.43 0 2.721-.323 3.873-.968a7.078 7.078 0 002.698-2.767c.669-1.176 1.003-2.513 1.003-4.011 0-1.499-.334-2.836-1.003-4.012a6.834 6.834 0 00-2.698-2.732c-1.152-.669-2.443-1.003-3.873-1.003-1.429 0-2.72.334-3.873 1.003a7.06 7.06 0 00-2.732 2.732c-.646 1.176-.969 2.513-.969 4.012 0 1.498.323 2.835.969 4.011a7.318 7.318 0 002.732 2.767c1.153.645 2.444.968 3.873.968zm32.88 4.358l-4.669-6.744h-5.153v6.744h-5.602v-24.208h10.478c2.145 0 4.001.357 5.568 1.072 1.591.714 2.813 1.729 3.666 3.043.853 1.314 1.28 2.87 1.28 4.669 0 1.798-.438 3.354-1.314 4.668-.853 1.291-2.075 2.283-3.666 2.974l5.429 7.782h-6.017zm-.104-15.424c0-1.361-.438-2.398-1.314-3.113-.876-.738-2.156-1.106-3.839-1.106h-4.565v8.438h4.565c1.683 0 2.963-.369 3.839-1.107.876-.738 1.314-1.775 1.314-3.112z" fill="url(#Slice_4__paint1_linear)"/>
    <path d="M60.7 703.31l-10.478 24.208h-5.534L34.244 703.31h6.052l7.367 17.291 7.47-17.291H60.7zm20.766 19.712v4.496H62.722V703.31h18.294v4.495H68.289v5.257h11.24v4.357h-11.24v5.603h13.177zm19.881 4.496l-4.668-6.744h-5.154v6.744h-5.603V703.31h10.479c2.144 0 4 .357 5.568 1.072 1.59.714 2.812 1.729 3.665 3.043.853 1.314 1.28 2.87 1.28 4.669 0 1.798-.438 3.354-1.314 4.668-.853 1.291-2.075 2.283-3.666 2.974l5.43 7.782h-6.018zm-.104-15.424c0-1.361-.438-2.398-1.314-3.113-.876-.738-2.155-1.107-3.838-1.107h-4.565v8.439h4.565c1.683 0 2.962-.369 3.838-1.107.876-.738 1.314-1.775 1.314-3.112zm10.111-8.784h5.602v24.208h-5.602V703.31zm16.95 4.495v6.398h11.205v4.496h-11.205v8.819h-5.603V703.31h18.295v4.495h-12.692zm16.484-4.495h5.603v24.208h-5.603V703.31zm37.527 26.801a7.707 7.707 0 01-2.87 2.214c-1.107.507-2.329.76-3.666.76-1.798 0-3.424-.392-4.876-1.175-1.453-.761-3.113-2.121-4.98-4.081-2.19-.277-4.15-.98-5.879-2.11a12.118 12.118 0 01-4.012-4.357c-.945-1.798-1.418-3.781-1.418-5.948 0-2.375.565-4.508 1.695-6.398 1.153-1.914 2.732-3.412 4.738-4.496 2.029-1.084 4.3-1.625 6.813-1.625s4.772.541 6.778 1.625c2.006 1.084 3.585 2.582 4.738 4.496 1.152 1.89 1.729 4.023 1.729 6.398 0 2.812-.796 5.279-2.386 7.4-1.568 2.121-3.655 3.597-6.26 4.427.576.599 1.13 1.026 1.66 1.279a3.885 3.885 0 001.764.415c1.498 0 2.813-.599 3.942-1.798l2.49 2.974zm-22.029-14.697c0 1.498.323 2.835.968 4.011a7.332 7.332 0 002.732 2.767c1.153.645 2.444.968 3.874.968 1.429 0 2.72-.323 3.873-.968a7.07 7.07 0 002.697-2.767c.669-1.176 1.003-2.513 1.003-4.011 0-1.499-.334-2.836-1.003-4.012a6.825 6.825 0 00-2.697-2.732c-1.153-.669-2.444-1.003-3.873-1.003-1.43 0-2.721.334-3.874 1.003a7.074 7.074 0 00-2.732 2.732c-.645 1.176-.968 2.513-.968 4.012zm35.785 12.519c-3.459 0-6.156-.957-8.093-2.871-1.913-1.913-2.87-4.645-2.87-8.196V703.31h5.602v13.349c0 4.334 1.799 6.501 5.395 6.501 1.752 0 3.09-.519 4.012-1.556.922-1.061 1.383-2.709 1.383-4.945V703.31h5.533v13.556c0 3.551-.968 6.283-2.905 8.196-1.913 1.914-4.599 2.871-8.057 2.871zm35.243-4.911v4.496H212.57V703.31h18.294v4.495h-12.727v5.257h11.24v4.357h-11.24v5.603h13.177zm30.194-.692h-11.24l-2.144 5.188h-5.74l10.789-24.208h5.534l10.824 24.208h-5.879l-2.144-5.188zm-1.764-4.254l-3.838-9.268-3.839 9.268h7.677zm30.047 9.857c-1.914 0-3.77-.254-5.568-.761-1.775-.531-3.205-1.211-4.288-2.041l1.902-4.219c1.037.761 2.271 1.372 3.7 1.833 1.43.461 2.859.692 4.288.692 1.591 0 2.767-.231 3.528-.692.761-.484 1.141-1.118 1.141-1.902 0-.576-.23-1.049-.692-1.418-.438-.392-1.014-.703-1.729-.934-.691-.23-1.637-.484-2.836-.76-1.844-.438-3.354-.876-4.53-1.315a7.49 7.49 0 01-3.043-2.109c-.83-.968-1.245-2.26-1.245-3.873 0-1.407.38-2.675 1.141-3.805.761-1.152 1.902-2.063 3.424-2.732 1.545-.668 3.424-1.002 5.637-1.002 1.545 0 3.055.184 4.53.553 1.476.369 2.767.899 3.873 1.591l-1.729 4.253c-2.236-1.268-4.472-1.902-6.709-1.902-1.568 0-2.732.254-3.493.761-.737.507-1.106 1.176-1.106 2.006 0 .83.426 1.452 1.279 1.867.876.392 2.202.784 3.977 1.176 1.845.438 3.355.876 4.531 1.314a7.374 7.374 0 013.008 2.075c.853.946 1.28 2.225 1.28 3.839a6.622 6.622 0 01-1.176 3.804c-.761 1.13-1.913 2.029-3.458 2.698-1.545.668-3.424 1.003-5.637 1.003zm24.854 0c-3.458 0-6.155-.957-8.092-2.871-1.914-1.913-2.87-4.645-2.87-8.196V703.31h5.602v13.349c0 4.334 1.798 6.501 5.395 6.501 1.752 0 3.089-.519 4.012-1.556.922-1.061 1.383-2.709 1.383-4.945V703.31h5.533v13.556c0 3.551-.968 6.283-2.905 8.196-1.913 1.914-4.599 2.871-8.058 2.871zm31.936-5.603h-11.24l-2.144 5.188h-5.741l10.79-24.208h5.533l10.825 24.208h-5.879l-2.144-5.188zm-1.764-4.254l-3.839-9.268-3.839 9.268h7.678zm33.678 9.857c-2.467 0-4.704-.531-6.709-1.591-1.983-1.084-3.551-2.571-4.704-4.461-1.129-1.914-1.694-4.07-1.694-6.467 0-2.398.565-4.542 1.694-6.433a11.995 11.995 0 014.704-4.461c2.005-1.084 4.253-1.625 6.743-1.625 2.098 0 3.989.368 5.672 1.106 1.706.738 3.135 1.799 4.288 3.182l-3.596 3.32c-1.637-1.891-3.666-2.836-6.087-2.836-1.499 0-2.836.334-4.012 1.003a6.995 6.995 0 00-2.766 2.732c-.646 1.176-.969 2.513-.969 4.012 0 1.498.323 2.835.969 4.011a7.244 7.244 0 002.766 2.767c1.176.645 2.513.968 4.012.968 2.421 0 4.45-.957 6.087-2.87l3.596 3.32a11.218 11.218 0 01-4.288 3.216c-1.706.738-3.608 1.107-5.706 1.107zm24.994 0c-2.513 0-4.784-.542-6.812-1.626-2.006-1.083-3.585-2.57-4.738-4.461-1.13-1.914-1.695-4.058-1.695-6.432 0-2.375.565-4.508 1.695-6.398 1.153-1.914 2.732-3.412 4.738-4.496 2.028-1.084 4.299-1.625 6.812-1.625s4.773.541 6.779 1.625c2.006 1.084 3.585 2.582 4.738 4.496 1.152 1.89 1.729 4.023 1.729 6.398 0 2.374-.577 4.518-1.729 6.432-1.153 1.891-2.732 3.378-4.738 4.461-2.006 1.084-4.266 1.626-6.779 1.626zm0-4.773c1.43 0 2.721-.323 3.874-.968a7.07 7.07 0 002.697-2.767c.669-1.176 1.003-2.513 1.003-4.011 0-1.499-.334-2.836-1.003-4.012a6.825 6.825 0 00-2.697-2.732c-1.153-.669-2.444-1.003-3.874-1.003-1.429 0-2.72.334-3.873 1.003a7.067 7.067 0 00-2.732 2.732c-.645 1.176-.968 2.513-.968 4.012 0 1.498.323 2.835.968 4.011a7.325 7.325 0 002.732 2.767c1.153.645 2.444.968 3.873.968zm39.658-19.85v24.208h-4.599l-12.07-14.698v14.698h-5.533V703.31h4.634l12.035 14.697V703.31h5.533zm24.472 19.712v4.496h-18.744V703.31h18.294v4.495h-12.726v5.257h11.239v4.357h-11.239v5.603h13.176zm19.472 4.496l-5.844-8.404-5.741 8.404h-6.432l8.957-12.312-8.508-11.896h6.363l5.568 7.85 5.464-7.85h6.052l-8.438 11.689 9.026 12.519h-6.467zm24.13-5.188h-11.24l-2.144 5.188h-5.74l10.789-24.208h5.534l10.824 24.208h-5.879l-2.144-5.188zm-1.764-4.254l-3.839-9.268-3.838 9.268h7.677zm-1.21-16.634c-.623 0-1.176-.115-1.66-.346-.461-.253-.98-.588-1.556-1.003a8.2 8.2 0 00-.934-.622 1.34 1.34 0 00-.692-.208c-.484 0-.876.173-1.176.519-.299.323-.461.795-.484 1.418h-2.732c.046-1.545.427-2.767 1.141-3.666.738-.922 1.706-1.383 2.905-1.383.6 0 1.13.127 1.591.38.484.231 1.026.565 1.626 1.003.368.277.668.484.899.623.253.138.495.207.726.207.461 0 .841-.161 1.141-.484.323-.346.496-.807.519-1.383h2.732c-.046 1.498-.438 2.697-1.176 3.596-.715.899-1.671 1.349-2.87 1.349zm24.895 26.491c-2.513 0-4.784-.542-6.813-1.626-2.006-1.083-3.585-2.57-4.738-4.461-1.13-1.914-1.695-4.058-1.695-6.432 0-2.375.565-4.508 1.695-6.398 1.153-1.914 2.732-3.412 4.738-4.496 2.029-1.084 4.3-1.625 6.813-1.625s4.772.541 6.778 1.625c2.006 1.084 3.585 2.582 4.738 4.496 1.153 1.89 1.729 4.023 1.729 6.398 0 2.374-.576 4.518-1.729 6.432-1.153 1.891-2.732 3.378-4.738 4.461-2.006 1.084-4.265 1.626-6.778 1.626zm0-4.773c1.429 0 2.72-.323 3.873-.968a7.07 7.07 0 002.697-2.767c.669-1.176 1.003-2.513 1.003-4.011 0-1.499-.334-2.836-1.003-4.012a6.825 6.825 0 00-2.697-2.732c-1.153-.669-2.444-1.003-3.873-1.003-1.43 0-2.721.334-3.874 1.003a7.074 7.074 0 00-2.732 2.732c-.645 1.176-.968 2.513-.968 4.012 0 1.498.323 2.835.968 4.011a7.332 7.332 0 002.732 2.767c1.153.645 2.444.968 3.874.968z" fill="#D7CFCF" fill-opacity=".83"/>
  </g>
  <defs>
    <linearGradient id="Slice_4__paint0_linear" x1="587.258" y1="70.584" x2="-6.416" y2="1144.1" gradientUnits="userSpaceOnUse">
      <stop stop-color="#010001"/>
      <stop offset=".411" stop-opacity=".29"/>
    </linearGradient>
    <linearGradient id="Slice_4__paint1_linear" x1="503.682" y1="597.974" x2="97.333" y2="631.116" gradientUnits="userSpaceOnUse">
      <stop stop-color="#fff"/>
      <stop offset="1" stop-color="#fff" stop-opacity=".42"/>
    </linearGradient>
    <clipPath id="Slice_4__clip0">
      <path fill="#fff" transform="translate(-7.857 -147)" d="M0 0h596.555v1147H0z"/>
    </clipPath>
    <clipPath id="Slice_4__clip1">
      <path fill="#fff" transform="translate(121.829 149.837)" d="M0 0h338.624v393.381H0z"/>
    </clipPath>
  </defs>
</svg>
