<svg width="235" height="273" viewBox="0 0 235 273" fill="none" xmlns="http://www.w3.org/2000/svg">
<g clip-path="url(#clip0)">
<path d="M110.394 210.365L110.394 209.664C111.856 209.664 113.341 209.635 114.807 209.579L114.836 210.28C113.361 210.336 111.866 210.365 110.394 210.365ZM105.953 210.284C104.483 210.229 102.991 210.145 101.519 210.035L101.577 209.336C103.039 209.446 104.521 209.529 105.982 209.584L105.953 210.284ZM119.271 210.026L119.212 209.326C120.672 209.215 122.149 209.074 123.602 208.906L123.691 209.603C122.227 209.771 120.74 209.913 119.271 210.026V210.026ZM97.0983 209.617C95.6317 209.449 94.1516 209.252 92.6989 209.03L92.8156 208.337C94.2585 208.558 95.7289 208.754 97.1856 208.92L97.0983 209.617ZM128.089 209.011L127.972 208.318C129.414 208.096 130.875 207.842 132.313 207.563L132.459 208.25C131.012 208.531 129.541 208.787 128.089 209.011V209.011ZM88.3279 208.274C86.8803 207.994 85.4218 207.683 83.9924 207.35L84.1673 206.668C85.5872 207 87.036 207.309 88.4737 207.586L88.3279 208.274ZM136.794 207.321L136.618 206.64C138.042 206.306 139.476 205.94 140.88 205.552L141.085 206.226C139.671 206.616 138.227 206.985 136.794 207.321V207.321ZM79.6995 206.259C78.2812 205.868 76.8538 205.446 75.4568 205.003L75.6892 204.337C77.0768 204.777 78.4948 205.197 79.9035 205.585L79.6995 206.259ZM145.326 204.965L145.093 204.3C146.481 203.858 147.88 203.382 149.249 202.886L149.511 203.541C148.132 204.041 146.724 204.52 145.326 204.965V204.965ZM71.2595 203.579C69.8796 203.081 68.4897 202.548 67.1282 201.995L67.4164 201.35C68.7688 201.899 70.1496 202.429 71.5203 202.923L71.2595 203.579ZM153.619 201.962L153.331 201.317C154.675 200.77 156.025 200.189 157.343 199.592L157.659 200.225C156.332 200.827 154.973 201.411 153.619 201.962V201.962ZM63.0684 200.253C61.7324 199.648 60.3929 199.01 59.0874 198.356L59.4296 197.735C60.7264 198.385 62.0567 199.019 63.3838 199.62L63.0684 200.253ZM161.624 198.334L161.281 197.713C162.577 197.063 163.874 196.38 165.138 195.684L165.506 196.29C164.234 196.992 162.928 197.679 161.624 198.334V198.334ZM55.1912 196.307C53.9094 195.601 52.6292 194.862 51.386 194.111L51.7796 193.519C53.0144 194.265 54.2862 194.999 55.5594 195.701L55.1912 196.307ZM169.301 194.099L168.907 193.507C170.14 192.762 171.377 191.982 172.582 191.187L173.001 191.763C171.787 192.564 170.542 193.349 169.301 194.099L169.301 194.099ZM47.6775 191.772C46.4612 190.971 45.248 190.136 44.0714 189.292L44.5135 188.732C45.6824 189.57 46.8875 190.399 48.0956 191.195L47.6775 191.772ZM176.6 189.288L176.158 188.728C177.324 187.892 178.492 187.019 179.628 186.134L180.094 186.677C178.95 187.568 177.774 188.446 176.6 189.288V189.288ZM40.5732 186.677C39.4313 185.788 38.2926 184.864 37.1887 183.931L37.6764 183.407C38.7731 184.333 39.9043 185.251 41.0387 186.134L40.5732 186.677ZM183.476 183.933L182.988 183.408C184.084 182.483 185.175 181.523 186.231 180.556L186.74 181.062C185.677 182.035 184.579 183.001 183.476 183.933L183.476 183.933ZM33.9227 181.059C32.8617 180.088 31.8046 179.08 30.7808 178.065L31.3109 177.579C32.328 178.588 33.3782 179.588 34.4323 180.553L33.9227 181.059ZM189.882 178.068L189.352 177.582C190.366 176.577 191.374 175.537 192.347 174.491L192.897 174.957C191.917 176.009 190.903 177.056 189.882 178.068V178.068ZM27.7675 174.955C26.7868 173.901 25.818 172.817 24.8876 171.732L25.4572 171.288C26.3811 172.366 27.3437 173.443 28.3177 174.49L27.7675 174.955ZM195.779 171.732L195.21 171.288C196.139 170.204 197.056 169.09 197.936 167.977L198.524 168.398C197.638 169.52 196.715 170.641 195.779 171.732ZM22.1461 168.404C21.2597 167.282 20.3854 166.128 19.5474 164.973L20.1523 164.574C20.9846 165.721 21.8531 166.867 22.7337 167.982L22.1461 168.404ZM201.127 164.962L200.522 164.563C201.357 163.411 202.178 162.23 202.962 161.052L203.583 161.428C202.794 162.613 201.968 163.802 201.127 164.962ZM17.0957 161.447C16.3075 160.263 15.5335 159.046 14.7951 157.831L15.4315 157.48C16.1649 158.687 16.9339 159.895 17.7166 161.072L17.0957 161.447ZM205.889 157.801L205.253 157.45C205.989 156.237 206.708 154.996 207.389 153.761L208.04 154.088C207.354 155.331 206.631 156.58 205.889 157.801ZM12.6498 154.131C11.9646 152.89 11.2962 151.619 10.6633 150.352L11.3274 150.051C11.9561 151.309 12.62 152.572 13.3006 153.804L12.6498 154.131ZM210.032 150.294L209.368 149.993C209.997 148.73 210.609 147.437 211.185 146.15L211.862 146.425C211.282 147.721 210.666 149.023 210.032 150.294ZM8.83901 146.502C8.25969 145.211 7.70156 143.893 7.17988 142.586L7.86731 142.337C8.38557 143.635 8.93994 144.943 9.51532 146.226L8.83901 146.502ZM213.526 142.487L212.838 142.238C213.36 140.927 213.86 139.59 214.323 138.265L215.021 138.487C214.554 139.821 214.051 141.166 213.526 142.487ZM5.68436 138.598C5.21602 137.265 4.7703 135.904 4.35961 134.555L5.06607 134.36C5.47407 135.7 5.91673 137.051 6.38184 138.375L5.68436 138.598ZM216.341 134.442L215.634 134.248C216.04 132.909 216.423 131.542 216.773 130.183L217.487 130.35C217.135 131.719 216.749 133.095 216.341 134.442ZM3.20816 130.464C2.85475 129.099 2.5263 127.709 2.23142 126.333L2.95227 126.193C3.24499 127.56 3.57128 128.94 3.92218 130.297L3.20816 130.464ZM218.459 126.218L217.738 126.079C218.029 124.713 218.295 123.32 218.528 121.94L219.255 122.052C219.02 123.441 218.752 124.843 218.459 126.218ZM1.43104 122.167C1.19526 120.783 0.985511 119.372 0.807728 117.974L1.53789 117.89C1.7146 119.279 1.92291 120.68 2.15726 122.055L1.43104 122.167ZM219.873 117.857L219.142 117.774C219.317 116.386 219.465 114.977 219.581 113.588L220.314 113.644C220.197 115.042 220.049 116.46 219.873 117.857V117.857ZM0.361835 113.761C0.243132 112.361 0.152627 110.938 0.0928267 109.534L0.827661 109.505C0.887101 110.901 0.977071 112.313 1.09487 113.705L0.361835 113.761ZM220.578 109.417L219.844 109.389C219.901 107.992 219.93 106.577 219.93 105.183L219.93 104.951H220.666L220.666 105.181C220.666 106.586 220.637 108.01 220.578 109.417ZM0.735538 105.299H-1.52588e-05L0.00016432 105.181C0.00016432 103.814 0.0280074 102.428 0.0831407 101.066L0.817953 101.093C0.76336 102.446 0.735706 103.822 0.735706 105.183L0.735538 105.299ZM219.833 100.746C219.772 99.3532 219.681 97.9403 219.561 96.5464L220.295 96.4893C220.415 97.8925 220.507 99.3147 220.568 100.716L219.833 100.746ZM1.07566 96.8931L0.342261 96.8383C0.457912 95.4342 0.604803 94.0163 0.778636 92.6238L1.50916 92.7067C1.33641 94.09 1.19059 95.4986 1.07566 96.8931ZM219.114 92.3614C218.936 90.9785 218.727 89.5774 218.49 88.1972L219.216 88.0841C219.454 89.4735 219.665 90.884 219.844 92.2765L219.114 92.3614ZM2.11831 88.5405L1.3921 88.4295C1.62519 87.0411 1.89115 85.6389 2.18296 84.2621L2.9038 84.4008C2.61411 85.7685 2.34993 87.1611 2.11829 88.5405L2.11831 88.5405ZM217.689 84.0601C217.394 82.6898 217.066 81.3097 216.715 79.9574L217.429 79.7886C217.783 81.1499 218.113 82.5397 218.41 83.919L217.689 84.0601ZM3.86397 80.295L3.14943 80.1286C3.49925 78.7638 3.88354 77.3867 4.29155 76.0353L4.99837 76.2293C4.59306 77.5716 4.21145 78.9395 3.86397 80.295ZM215.566 75.8956C215.157 74.5563 214.713 73.2058 214.246 71.8816L214.944 71.6583C215.413 72.9914 215.86 74.3511 216.272 75.6994L215.566 75.8956ZM6.30463 72.2111L5.60659 71.9899C6.07205 70.6548 6.57345 69.3083 7.09692 67.9881L7.78505 68.2359C7.26501 69.5475 6.76686 70.8849 6.30463 72.2111ZM212.756 67.9218C212.233 66.6175 211.677 65.3094 211.103 64.0336L211.779 63.7573C212.357 65.0416 212.917 66.3585 213.443 67.6715L212.756 67.9218ZM9.43341 64.3226L8.7564 64.048C9.33447 62.7526 9.94862 61.4501 10.5816 60.1773L11.2463 60.4775C10.6174 61.742 10.0075 63.0357 9.43341 64.3226ZM209.286 60.2108C208.657 58.9539 207.992 57.6918 207.309 56.4597L207.959 56.1322C208.647 57.3727 209.317 58.6432 209.95 59.9088L209.286 60.2108ZM13.2209 56.7066L12.5694 56.381C13.255 55.1352 13.9773 53.8851 14.7159 52.6654L15.353 53.016C14.6193 54.2275 13.9019 55.4694 13.2209 56.7066ZM205.174 52.7866C204.438 51.5795 203.668 50.3718 202.885 49.1969L203.505 48.8206C204.294 50.0034 205.069 51.2193 205.81 52.4342L205.174 52.7866ZM17.6392 49.4114L17.0176 49.0365C17.8066 47.8472 18.6318 46.6572 19.4699 45.4998L20.0751 45.8982C19.2425 47.0479 18.4231 48.2298 17.6392 49.4114ZM200.445 45.6968C199.61 44.5507 198.741 43.405 197.86 42.2923L198.446 41.8697C199.334 42.9901 200.209 44.1432 201.049 45.2973L200.445 45.6968ZM22.6567 42.4818L22.0687 42.0606C22.9551 40.9359 23.8773 39.8135 24.8094 38.7244L25.3794 39.1678C24.4533 40.2495 23.5373 41.3645 22.6567 42.4818V42.4818ZM195.132 38.9882C194.205 37.9091 193.241 36.8332 192.268 35.7902L192.818 35.3242C193.797 36.3742 194.767 37.4574 195.701 38.5438L195.132 38.9882ZM28.2389 35.9609L27.6883 35.4963C28.6648 34.4445 29.6778 33.3964 30.6993 32.3812L31.2301 32.8667C30.2155 33.8751 29.2091 34.9163 28.2389 35.9609L28.2389 35.9609ZM189.271 32.7031C188.254 31.6963 187.202 30.6968 186.146 29.7323L186.655 29.2259C187.718 30.1969 188.776 31.203 189.801 32.2165L189.271 32.7031ZM34.348 29.8895L33.8379 29.3841C34.8993 28.4105 35.9967 27.4436 37.0993 26.5099L37.5877 27.0341C36.4923 27.9616 35.4022 28.9224 34.348 29.8895ZM182.899 26.8824C181.8 25.9561 180.668 25.0395 179.534 24.1583L179.999 23.6148C181.14 24.5019 182.28 25.4245 183.386 26.3572L182.899 26.8824ZM40.944 24.3052L40.4778 23.7629C41.619 22.8718 42.7935 21.992 43.9683 21.1477L44.4111 21.7075C43.2441 22.5462 42.0775 23.4203 40.944 24.3052ZM176.056 21.5645C174.882 20.725 173.676 19.8976 172.471 19.1053L172.888 18.528C174.101 19.3256 175.316 20.1585 176.497 21.0037L176.056 21.5645ZM47.9844 19.2442L47.5652 18.6679C48.7777 17.8669 50.0217 17.0799 51.2626 16.3287L51.6569 16.9207C50.4243 17.6668 49.1886 18.4484 47.9844 19.2442H47.9844ZM168.784 16.7848C167.544 16.038 166.271 15.3055 165.001 14.6075L165.369 14.0001C166.647 14.7027 167.928 15.4402 169.177 16.1919L168.784 16.7848ZM55.4234 14.7405L55.0544 14.1338C56.3262 13.4307 57.6317 12.7418 58.9344 12.0866L59.2777 12.7067C57.9835 13.3576 56.6868 14.0419 55.4234 14.7405ZM161.129 12.5768C159.83 11.9279 158.499 11.2954 157.173 10.6967L157.488 10.0629C158.823 10.6655 160.163 11.3024 161.471 11.9557L161.129 12.5768ZM63.2134 10.8237L62.8968 10.1906C64.2231 9.58785 65.5816 9.00202 66.9348 8.4494L67.2243 9.09395C65.8803 9.64281 64.5307 10.2247 63.2133 10.8237L63.2134 10.8237ZM153.138 8.97053C151.787 8.42323 150.405 7.89541 149.033 7.40134L149.293 6.74532C150.674 7.24265 152.065 7.77421 153.426 8.32512L153.138 8.97053ZM71.3039 7.52066L71.0419 6.86533C72.4182 6.36509 73.8253 5.88471 75.2243 5.43738L75.4581 6.10231C74.0687 6.54656 72.671 7.02385 71.3039 7.52066ZM144.862 5.99205C143.472 5.5526 142.053 5.13436 140.646 4.749L140.849 4.07518C142.266 4.4631 143.694 4.88408 145.093 5.32645L144.862 5.99205ZM79.6697 4.84539L79.4643 4.17224C80.8788 3.77986 82.3223 3.40974 83.7544 3.07197L83.9311 3.75264C82.5085 4.08819 81.0747 4.45591 79.6697 4.84539ZM136.381 3.67012C134.961 3.33989 133.511 3.03259 132.073 2.75679L132.218 2.06927C133.666 2.34695 135.125 2.65647 136.555 2.98876L136.381 3.67012ZM88.2351 2.82596L88.0875 2.13911C89.5295 1.85767 90.9995 1.60019 92.4568 1.3737L92.5753 2.06567C91.1275 2.2908 89.6674 2.54656 88.2351 2.82596ZM127.731 2.01038C126.284 1.79055 124.814 1.59574 123.36 1.43174L123.446 0.735315C124.91 0.900518 126.39 1.09654 127.846 1.31807L127.731 2.01038ZM96.9437 1.473L96.8547 0.776914C98.3179 0.607089 99.8048 0.463119 101.274 0.349438L101.334 1.04826C99.8741 1.16141 98.397 1.3042 96.9437 1.473ZM118.968 1.02087C117.51 0.912502 116.028 0.83067 114.563 0.77777L114.591 0.076902C116.066 0.130314 117.558 0.212662 119.025 0.321712L118.968 1.02087ZM105.739 0.791296L105.708 0.0907796C107.179 0.0329291 108.673 0.00242641 110.15 4.57764e-05L110.151 0.701264C108.684 0.703645 107.2 0.733943 105.739 0.791296Z" fill="#302E3F"/>
<path d="M235 71.8892V52.8021C228.78 51.4403 222.925 48.8613 217.806 45.2286C212.687 41.5959 208.415 36.9888 205.262 31.6993L205.262 31.6997C203.749 32.7689 201.915 33.3444 200.032 33.3405H184.133C188.376 43.4205 195.296 52.2749 204.214 59.0335C213.133 65.7921 223.742 70.2225 235 71.8892Z" fill="#3F3D56"/>
<path d="M235 51.7082V33.3721C235 32.0308 234.724 30.7025 234.185 29.4632C233.647 28.2239 232.858 27.0978 231.863 26.1494C230.868 25.2009 229.687 24.4486 228.387 23.9355C227.087 23.4224 225.694 23.1585 224.287 23.1589H208.851V24.9294C208.853 26.065 208.612 27.1891 208.145 28.2335C207.677 29.2779 206.991 30.2208 206.13 31.0051C209.18 36.1709 213.32 40.6779 218.289 44.2413C223.258 47.8047 228.948 50.3472 235 51.7082Z" fill="#3F3D56"/>
<path d="M160.75 33.3405H150.809C148.469 33.3399 146.226 32.4534 144.572 30.876C142.918 29.2987 141.989 27.1597 141.989 24.9294V23.1588H127.506C126.099 23.1587 124.706 23.4228 123.406 23.936C122.107 24.4493 120.925 25.2016 119.931 26.15C118.936 27.0984 118.147 28.2243 117.608 29.4635C117.07 30.7027 116.793 32.0308 116.793 33.3721V260.637C116.792 261.978 117.068 263.307 117.606 264.546C118.144 265.785 118.933 266.911 119.928 267.859C120.923 268.808 122.105 269.559 123.405 270.071C124.706 270.583 126.099 270.845 127.506 270.843H224.287C224.728 270.844 225.169 270.818 225.607 270.766C228.198 270.458 230.582 269.259 232.312 267.394C234.041 265.529 234.997 263.126 235 260.637V93.336C199.8 89.4477 170.471 65.505 160.75 33.3405Z" fill="#3F3D56"/>
<path d="M182.927 33.3405H161.912C171.585 64.9089 200.411 88.3959 235 92.2667V72.9761C223.441 71.2913 212.548 66.744 203.411 59.7886C194.273 52.8333 187.21 43.7134 182.927 33.3405Z" fill="#3F3D56"/>
<path opacity="0.1" d="M151.838 267.33C152.105 267.077 158.432 260.969 163.795 246.476C168.715 233.179 173.68 209.991 169.389 175.035C161.262 108.813 202.941 66.61 203.364 66.1914L202.13 65.0619C202.023 65.168 191.306 75.9073 181.772 94.7606C169.151 119.761 164.267 147.672 167.691 175.224C175.805 241.333 150.884 265.934 150.631 266.175L151.838 267.33Z" fill="white"/>
<path opacity="0.1" d="M216.162 65.0817C222.3 65.0817 227.277 60.3376 227.277 54.4855C227.277 48.6334 222.3 43.8893 216.162 43.8893C210.023 43.8893 205.047 48.6334 205.047 54.4855C205.047 60.3376 210.023 65.0817 216.162 65.0817Z" fill="black"/>
<path opacity="0.1" d="M172.372 95.1628C178.511 95.1628 183.487 90.4188 183.487 84.5666C183.487 78.7145 178.511 73.9704 172.372 73.9704C166.234 73.9704 161.257 78.7145 161.257 84.5666C161.257 90.4188 166.234 95.1628 172.372 95.1628Z" fill="black"/>
<path opacity="0.1" d="M189.14 125.915C195.278 125.915 200.255 121.171 200.255 115.319C200.255 109.467 195.278 104.722 189.14 104.722C183.001 104.722 178.024 109.467 178.024 115.319C178.024 121.171 183.001 125.915 189.14 125.915Z" fill="black"/>
<path opacity="0.1" d="M155.423 140.721C161.562 140.721 166.538 135.977 166.538 130.125C166.538 124.273 161.562 119.528 155.423 119.528C149.285 119.528 144.308 124.273 144.308 130.125C144.308 135.977 149.285 140.721 155.423 140.721Z" fill="black"/>
<path opacity="0.1" d="M183.452 182.485C189.591 182.485 194.567 177.741 194.567 171.888C194.567 166.036 189.591 161.292 183.452 161.292C177.313 161.292 172.337 166.036 172.337 171.888C172.337 177.741 177.313 182.485 183.452 182.485Z" fill="black"/>
<path opacity="0.1" d="M145.218 266.19C145.218 266.19 162.505 243.365 134.979 216.821L145.218 266.19Z" fill="white"/>
<path opacity="0.1" d="M158.615 268.822C158.615 268.822 170.431 243.02 208.406 252.104L158.615 268.822Z" fill="white"/>
<path d="M223 176H129V195H223V176Z" fill="#00FF75" fill-opacity="0.52"/>
<path d="M157.889 140.231C154.143 134.922 152.516 128.508 153.304 122.154C154.092 115.8 157.243 109.925 162.185 105.595C167.126 101.265 173.532 98.7673 180.24 98.5538C186.949 98.3404 193.515 100.426 198.749 104.432C203.982 108.438 207.537 114.099 208.767 120.389C209.998 126.679 208.824 133.182 205.457 138.717C202.09 144.252 196.754 148.454 190.416 150.561C184.078 152.667 177.158 152.538 170.912 150.198C170.507 151.576 169.749 152.837 168.708 153.868C167.667 154.899 166.373 155.667 164.944 156.104C163.514 156.542 161.994 156.634 160.517 156.374C159.041 156.113 157.656 155.508 156.485 154.612C155.315 153.716 154.396 152.557 153.81 151.24C153.224 149.922 152.991 148.486 153.13 147.061C153.269 145.636 153.776 144.267 154.607 143.074C155.438 141.882 156.565 140.905 157.889 140.231Z" fill="#F2F2F2"/>
<path d="M187.126 115.726C186.458 115.358 183.926 118.308 181.131 122.6C178.337 118.308 175.805 115.358 175.136 115.726C174.394 116.135 176.221 120.489 179.256 125.625C176.221 130.76 174.394 135.115 175.136 135.523C175.805 135.891 178.337 132.941 181.131 128.649C183.926 132.941 186.458 135.891 187.126 135.523C187.868 135.115 186.042 130.76 183.007 125.625C186.042 120.489 187.868 116.135 187.126 115.726Z" fill="#9314D6"/>
<path d="M52.6485 161.159C52.6485 161.159 49.6568 173.382 52.2211 173.382C54.7855 173.382 59.9141 167.678 59.9141 167.678V164.418L52.6485 161.159Z" fill="#A0616A"/>
<path d="M58.8457 150.362L51.1525 161.77H56.7085L58.8457 150.362Z" fill="#D0CDE1"/>
<path d="M64.4017 249.776H54.1444V257.925H64.4017V249.776Z" fill="#A0616A"/>
<path d="M87.053 248.554L89.1902 257.925L99.8748 255.48L97.3103 247.332L87.053 248.554Z" fill="#A0616A"/>
<path d="M54.9992 164.214C54.9992 164.214 51.5801 165.844 51.1527 173.178C50.7253 180.512 52.4348 199.661 52.4348 199.661C52.4348 199.661 50.7253 208.218 52.4348 215.959C54.1444 223.7 50.7253 251.813 52.8622 251.813C54.9992 251.813 66.1112 253.036 66.5386 251.813C66.966 250.591 67.3934 232.256 67.3934 232.256C67.3934 232.256 70.8125 222.885 67.3934 217.181C67.3934 217.181 75.0863 223.293 75.0863 224.922C75.0863 226.552 83.2067 251.813 87.0532 252.221C90.8997 252.628 101.584 251.813 99.4474 248.146C97.3105 244.479 92.1818 227.774 92.1818 227.774C92.1818 227.774 88.3353 215.551 81.4971 210.255L84.9162 184.179C84.9162 184.179 92.1818 166.659 87.908 164.214C83.6341 161.77 54.9992 164.214 54.9992 164.214Z" fill="#030304"/>
<path d="M67.8208 97.8021C73.9578 97.8021 78.9328 93.0593 78.9328 87.2087C78.9328 81.3582 73.9578 76.6154 67.8208 76.6154C61.6837 76.6154 56.7087 81.3582 56.7087 87.2087C56.7087 93.0593 61.6837 97.8021 67.8208 97.8021Z" fill="#A0616A"/>
<path d="M62.2647 93.7277C62.2647 93.7277 66.5386 107.173 65.2565 108.803C63.9743 110.433 78.9328 99.8393 78.9328 99.8393C78.9328 99.8393 73.3768 96.1723 75.5137 90.8756L62.2647 93.7277Z" fill="#A0616A"/>
<path d="M80.215 98.617C80.215 98.617 75.0863 100.247 72.522 103.099C69.9577 105.951 63.9743 106.358 63.9743 106.358C63.9743 106.358 58.6849 109.198 56.7087 114.1C54.6025 119.323 55.8267 126.678 56.7087 128.36C58.4183 131.619 58.4183 139.768 58.4183 139.768L56.2813 158.51C56.2813 158.51 48.5884 165.437 54.5718 166.251C60.5552 167.066 71.2399 165.844 77.6507 166.251C84.0615 166.659 91.327 167.474 89.1901 163.399C87.0532 159.325 84.4889 156.473 87.0532 148.324C89.0598 141.948 88.9728 118.106 88.84 108.038C88.8218 106.656 88.4328 105.3 87.7101 104.101C86.9874 102.902 85.9549 101.9 84.7109 101.189L80.215 98.617Z" fill="#D0CDE1"/>
<path d="M63.5469 160.955C63.5469 160.955 61.6024 165.036 61.41 167.474C59.9141 186.42 70.8125 167.474 70.8125 167.474V164.214L63.5469 160.955Z" fill="#A0616A"/>
<path d="M93.464 254.665C93.464 254.665 87.0532 250.184 87.0532 252.628C87.0532 255.073 79.7876 264.851 79.7876 264.851C79.7876 264.851 67.8208 273 77.6507 273C87.4806 273 91.7544 271.37 91.7544 271.37L102.012 264.851C102.012 264.851 104.576 261.999 103.721 258.74C102.867 255.48 99.8748 250.998 99.8748 250.998C99.8748 250.998 96.4557 255.48 93.464 254.665Z" fill="#0D0D0E"/>
<path d="M55.8539 255.888C55.8539 255.888 54.9992 251.813 52.0075 253.85C49.0158 255.888 40.8954 261.999 40.8954 261.999C40.8954 261.999 25.9369 265.259 35.3394 269.333C44.7419 273.407 66.1112 267.703 66.1112 267.703C66.1112 267.703 66.966 254.665 66.1112 255.073C65.2565 255.48 56.2813 256.703 55.8539 255.888Z" fill="#060607"/>
<path opacity="0.1" d="M74.0179 111.451L75.3 136.305L62.8762 160.293L60.7688 159.529L73.5906 137.12L74.0179 111.451Z" fill="black"/>
<path d="M84.0615 103.914L87.2668 103.302C87.2668 103.302 96.8831 110.025 93.8914 123.471C90.8997 136.916 77.6507 157.288 77.6507 157.288C77.6507 157.288 74.6589 160.955 73.8042 161.77C72.9494 162.585 71.2398 161.77 72.0946 162.992C72.9494 164.214 70.8125 165.029 70.8125 165.029C70.8125 165.029 61.4099 165.029 62.2647 161.77C63.1195 158.51 77.6507 135.286 77.6507 135.286L75.5137 113.692C75.5137 113.692 73.8042 103.099 84.0615 103.914Z" fill="#D0CDE1"/>
<path opacity="0.1" d="M88.1218 141.602V138.749L73.5906 161.566L88.1218 141.602Z" fill="black"/>
<path d="M59.9359 77.3954L58.0988 76.6943C58.0988 76.6943 61.9399 72.663 67.284 73.0135L65.7809 71.436C65.7809 71.436 69.455 70.0338 72.795 73.7146C74.5508 75.6495 76.5823 77.9239 77.8487 80.486H79.816L78.9949 82.2096L81.8687 83.9331L78.919 83.6235C79.1984 85.1115 79.1028 86.6415 78.64 88.0874L78.7191 89.4496C78.7191 89.4496 75.3 84.4065 75.3 83.7054V85.4582C75.3 85.4582 73.463 83.8807 73.463 82.829L72.461 84.056L71.96 82.1279L65.7809 84.056L66.7829 82.4785L62.9419 83.0043L64.4449 81.0763C64.4449 81.0763 60.1029 83.3549 59.9359 85.2829C59.7688 87.211 57.5979 89.6648 57.5979 89.6648L56.5959 87.9121C56.5959 87.9121 55.0929 80.0246 59.9359 77.3954Z" fill="black"/>
</g>
<defs>
<clipPath id="clip0">
<rect width="235" height="273" fill="white"/>
</clipPath>
</defs>
</svg>
