<svg width="422" height="904" viewBox="0 0 422 904" fill="none" xmlns="http://www.w3.org/2000/svg">
<g clip-path="url(#clip0)" filter="url(#filter0_dd)">
<rect width="414" height="896" transform="translate(4)" fill="white"/>
<path d="M18.0017 315.447C55.3765 296.725 96.9946 285.392 139.063 275.557C149.011 273.232 158.984 270.99 168.932 268.754C201.038 261.537 232.882 254.38 262.724 244.663C301.823 231.932 337.545 214.793 366.016 187.321C393.628 160.677 414.388 124.344 424.819 72.9681L431.274 853.5H18.1425C18.0713 853.277 17.9664 852.948 17.8295 852.516C17.5511 851.636 17.1401 850.33 16.6104 848.623C15.551 845.208 14.0164 840.189 12.1162 833.774C8.31597 820.944 3.05376 802.532 -2.79322 780.201C-14.4876 735.54 -28.5195 675.215 -37.8735 612.551C-47.2286 549.881 -51.8999 484.903 -44.8905 430.924C-37.878 376.922 -19.1975 334.081 18.0017 315.447Z" fill="#71588F" stroke="black"/>
<path d="M2.77778 325C123.778 183 311.778 346 416.778 151V896H2.77778C2.77778 896 -118.222 467 2.77778 325Z" fill="#602F9E"/>
<path d="M2.77778 325C123.778 183 311.778 346 416.778 151V896H2.77778C2.77778 896 -118.222 467 2.77778 325Z" fill="url(#paint0_linear)"/>
<g clip-path="url(#clip1)">
<path d="M204.394 416.365L204.394 415.664C205.856 415.664 207.341 415.635 208.807 415.579L208.836 416.28C207.361 416.336 205.866 416.365 204.394 416.365ZM199.953 416.284C198.483 416.229 196.991 416.145 195.519 416.035L195.577 415.336C197.039 415.446 198.521 415.529 199.982 415.584L199.953 416.284ZM213.271 416.026L213.212 415.326C214.672 415.215 216.149 415.074 217.602 414.906L217.691 415.603C216.227 415.771 214.74 415.913 213.271 416.026V416.026ZM191.098 415.617C189.632 415.449 188.152 415.252 186.699 415.03L186.816 414.337C188.258 414.558 189.729 414.754 191.186 414.92L191.098 415.617ZM222.089 415.011L221.972 414.318C223.414 414.096 224.875 413.842 226.313 413.563L226.459 414.25C225.012 414.531 223.541 414.787 222.089 415.011V415.011ZM182.328 414.274C180.88 413.994 179.422 413.683 177.992 413.35L178.167 412.668C179.587 413 181.036 413.309 182.474 413.586L182.328 414.274ZM230.794 413.321L230.618 412.64C232.042 412.306 233.476 411.94 234.88 411.552L235.085 412.226C233.671 412.616 232.227 412.985 230.794 413.321V413.321ZM173.7 412.259C172.281 411.868 170.854 411.446 169.457 411.003L169.689 410.337C171.077 410.777 172.495 411.197 173.904 411.585L173.7 412.259ZM239.326 410.965L239.093 410.3C240.481 409.858 241.88 409.382 243.249 408.886L243.511 409.541C242.132 410.041 240.724 410.52 239.326 410.965V410.965ZM165.26 409.579C163.88 409.081 162.49 408.548 161.128 407.995L161.416 407.35C162.769 407.899 164.15 408.429 165.52 408.923L165.26 409.579ZM247.619 407.962L247.331 407.317C248.675 406.77 250.025 406.189 251.343 405.592L251.659 406.225C250.332 406.827 248.973 407.411 247.619 407.962V407.962ZM157.068 406.253C155.732 405.648 154.393 405.01 153.087 404.356L153.43 403.735C154.726 404.385 156.057 405.019 157.384 405.62L157.068 406.253ZM255.624 404.334L255.281 403.713C256.577 403.063 257.874 402.38 259.138 401.684L259.506 402.29C258.234 402.992 256.928 403.679 255.624 404.334V404.334ZM149.191 402.307C147.909 401.601 146.629 400.862 145.386 400.111L145.78 399.519C147.014 400.265 148.286 400.999 149.559 401.701L149.191 402.307ZM263.301 400.099L262.907 399.507C264.14 398.762 265.377 397.982 266.582 397.187L267.001 397.763C265.787 398.564 264.542 399.349 263.301 400.099L263.301 400.099ZM141.678 397.772C140.461 396.971 139.248 396.136 138.071 395.292L138.514 394.732C139.682 395.57 140.888 396.399 142.096 397.195L141.678 397.772ZM270.6 395.288L270.158 394.728C271.324 393.892 272.492 393.019 273.628 392.134L274.094 392.677C272.95 393.568 271.774 394.446 270.6 395.288V395.288ZM134.573 392.677C133.431 391.788 132.293 390.864 131.189 389.931L131.676 389.407C132.773 390.333 133.904 391.251 135.039 392.134L134.573 392.677ZM277.476 389.933L276.988 389.408C278.084 388.483 279.175 387.523 280.231 386.556L280.74 387.062C279.677 388.035 278.579 389.001 277.476 389.933L277.476 389.933ZM127.923 387.059C126.862 386.088 125.805 385.08 124.781 384.065L125.311 383.579C126.328 384.588 127.378 385.588 128.432 386.553L127.923 387.059ZM283.882 384.068L283.352 383.582C284.366 382.577 285.374 381.537 286.347 380.491L286.897 380.957C285.917 382.009 284.903 383.056 283.882 384.068V384.068ZM121.767 380.955C120.787 379.901 119.818 378.817 118.888 377.732L119.457 377.288C120.381 378.366 121.344 379.443 122.318 380.49L121.767 380.955ZM289.779 377.732L289.21 377.288C290.139 376.204 291.056 375.09 291.936 373.977L292.524 374.398C291.638 375.52 290.715 376.641 289.779 377.732ZM116.146 374.404C115.26 373.282 114.385 372.128 113.547 370.973L114.152 370.574C114.985 371.721 115.853 372.867 116.734 373.982L116.146 374.404ZM295.127 370.962L294.522 370.563C295.357 369.411 296.178 368.23 296.962 367.052L297.583 367.428C296.794 368.613 295.968 369.802 295.127 370.962ZM111.096 367.447C110.307 366.263 109.534 365.046 108.795 363.831L109.432 363.48C110.165 364.687 110.934 365.895 111.717 367.072L111.096 367.447ZM299.889 363.801L299.253 363.45C299.989 362.237 300.708 360.996 301.389 359.761L302.04 360.088C301.354 361.331 300.631 362.58 299.889 363.801ZM106.65 360.131C105.965 358.89 105.296 357.619 104.663 356.352L105.327 356.051C105.956 357.309 106.62 358.572 107.301 359.804L106.65 360.131ZM304.032 356.294L303.368 355.993C303.997 354.73 304.609 353.437 305.185 352.15L305.862 352.425C305.282 353.721 304.666 355.023 304.032 356.294ZM102.839 352.502C102.26 351.211 101.702 349.893 101.18 348.586L101.867 348.337C102.386 349.635 102.94 350.943 103.515 352.226L102.839 352.502ZM307.526 348.487L306.838 348.238C307.36 346.927 307.86 345.59 308.323 344.265L309.021 344.487C308.554 345.821 308.051 347.166 307.526 348.487ZM99.6844 344.598C99.216 343.265 98.7703 341.904 98.3596 340.555L99.0661 340.36C99.4741 341.7 99.9167 343.051 100.382 344.375L99.6844 344.598ZM310.341 340.442L309.634 340.248C310.04 338.909 310.423 337.542 310.773 336.183L311.487 336.35C311.135 337.719 310.749 339.095 310.341 340.442ZM97.2082 336.464C96.8548 335.099 96.5263 333.709 96.2314 332.333L96.9523 332.193C97.245 333.56 97.5713 334.94 97.9222 336.297L97.2082 336.464ZM312.459 332.218L311.738 332.079C312.029 330.713 312.295 329.32 312.528 327.94L313.255 328.052C313.02 329.441 312.752 330.843 312.459 332.218ZM95.431 328.167C95.1953 326.783 94.9855 325.372 94.8077 323.974L95.5379 323.89C95.7146 325.279 95.9229 326.68 96.1573 328.055L95.431 328.167ZM313.873 323.857L313.142 323.774C313.317 322.386 313.465 320.977 313.581 319.588L314.314 319.644C314.197 321.042 314.049 322.46 313.873 323.857V323.857ZM94.3618 319.761C94.2431 318.361 94.1526 316.938 94.0928 315.534L94.8277 315.505C94.8871 316.901 94.9771 318.313 95.0949 319.705L94.3618 319.761ZM314.578 315.417L313.844 315.389C313.901 313.992 313.93 312.577 313.93 311.183L313.93 310.951H314.666L314.666 311.181C314.666 312.586 314.637 314.01 314.578 315.417ZM94.7355 311.299H94L94.0002 311.181C94.0002 309.814 94.028 308.428 94.0831 307.066L94.818 307.093C94.7634 308.446 94.7357 309.822 94.7357 311.183L94.7355 311.299ZM313.833 306.746C313.772 305.353 313.681 303.94 313.561 302.546L314.295 302.489C314.415 303.893 314.507 305.315 314.568 306.716L313.833 306.746ZM95.0757 302.893L94.3423 302.838C94.4579 301.434 94.6048 300.016 94.7786 298.624L95.5092 298.707C95.3364 300.09 95.1906 301.499 95.0757 302.893ZM313.114 298.361C312.936 296.978 312.727 295.577 312.49 294.197L313.216 294.084C313.454 295.473 313.665 296.884 313.844 298.276L313.114 298.361ZM96.1183 294.54L95.3921 294.43C95.6252 293.041 95.8911 291.639 96.183 290.262L96.9038 290.401C96.6141 291.768 96.3499 293.161 96.1183 294.54L96.1183 294.54ZM311.689 290.06C311.394 288.69 311.066 287.31 310.715 285.957L311.429 285.789C311.783 287.15 312.113 288.54 312.41 289.919L311.689 290.06ZM97.864 286.295L97.1494 286.129C97.4992 284.764 97.8835 283.387 98.2915 282.035L98.9984 282.229C98.5931 283.572 98.2115 284.939 97.864 286.295ZM309.566 281.896C309.157 280.556 308.713 279.206 308.246 277.882L308.944 277.658C309.413 278.991 309.86 280.351 310.272 281.699L309.566 281.896ZM100.305 278.211L99.6066 277.99C100.072 276.655 100.573 275.308 101.097 273.988L101.785 274.236C101.265 275.547 100.767 276.885 100.305 278.211ZM306.756 273.922C306.233 272.617 305.677 271.309 305.103 270.034L305.779 269.757C306.357 271.042 306.917 272.358 307.443 273.672L306.756 273.922ZM103.433 270.323L102.756 270.048C103.334 268.753 103.949 267.45 104.582 266.177L105.246 266.478C104.617 267.742 104.008 269.036 103.433 270.323ZM303.286 266.211C302.657 264.954 301.992 263.692 301.309 262.46L301.959 262.132C302.647 263.373 303.317 264.643 303.95 265.909L303.286 266.211ZM107.221 262.707L106.569 262.381C107.255 261.135 107.977 259.885 108.716 258.665L109.353 259.016C108.619 260.228 107.902 261.469 107.221 262.707ZM299.174 258.787C298.438 257.579 297.668 256.372 296.885 255.197L297.505 254.821C298.294 256.003 299.069 257.219 299.81 258.434L299.174 258.787ZM111.639 255.411L111.018 255.037C111.807 253.847 112.632 252.657 113.47 251.5L114.075 251.898C113.243 253.048 112.423 254.23 111.639 255.411ZM294.445 251.697C293.61 250.551 292.741 249.405 291.86 248.292L292.446 247.87C293.334 248.99 294.209 250.143 295.049 251.297L294.445 251.697ZM116.657 248.482L116.069 248.061C116.955 246.936 117.877 245.814 118.809 244.724L119.379 245.168C118.453 246.25 117.537 247.365 116.657 248.482V248.482ZM289.132 244.988C288.205 243.909 287.241 242.833 286.268 241.79L286.818 241.324C287.797 242.374 288.767 243.457 289.701 244.544L289.132 244.988ZM122.239 241.961L121.688 241.496C122.665 240.444 123.678 239.396 124.699 238.381L125.23 238.867C124.215 239.875 123.209 240.916 122.239 241.961L122.239 241.961ZM283.271 238.703C282.254 237.696 281.202 236.697 280.146 235.732L280.655 235.226C281.718 236.197 282.776 237.203 283.801 238.217L283.271 238.703ZM128.348 235.889L127.838 235.384C128.899 234.41 129.997 233.444 131.099 232.51L131.588 233.034C130.492 233.962 129.402 234.922 128.348 235.889ZM276.899 232.882C275.8 231.956 274.668 231.039 273.534 230.158L273.999 229.615C275.14 230.502 276.28 231.424 277.386 232.357L276.899 232.882ZM134.944 230.305L134.478 229.763C135.619 228.872 136.793 227.992 137.968 227.148L138.411 227.707C137.244 228.546 136.078 229.42 134.944 230.305ZM270.056 227.565C268.882 226.725 267.676 225.898 266.471 225.105L266.888 224.528C268.101 225.326 269.316 226.159 270.497 227.004L270.056 227.565ZM141.984 225.244L141.565 224.668C142.778 223.867 144.022 223.08 145.263 222.329L145.657 222.921C144.424 223.667 143.189 224.448 141.984 225.244H141.984ZM262.784 222.785C261.544 222.038 260.271 221.305 259.001 220.607L259.369 220C260.647 220.703 261.928 221.44 263.177 222.192L262.784 222.785ZM149.423 220.741L149.054 220.134C150.326 219.431 151.632 218.742 152.934 218.087L153.278 218.707C151.983 219.358 150.687 220.042 149.423 220.741ZM255.129 218.577C253.83 217.928 252.499 217.295 251.173 216.697L251.488 216.063C252.823 216.666 254.163 217.302 255.471 217.956L255.129 218.577ZM157.213 216.824L156.897 216.191C158.223 215.588 159.582 215.002 160.935 214.449L161.224 215.094C159.88 215.643 158.531 216.225 157.213 216.824L157.213 216.824ZM247.138 214.971C245.787 214.423 244.405 213.895 243.033 213.401L243.293 212.745C244.674 213.243 246.065 213.774 247.426 214.325L247.138 214.971ZM165.304 213.521L165.042 212.865C166.418 212.365 167.825 211.885 169.224 211.437L169.458 212.102C168.069 212.547 166.671 213.024 165.304 213.521ZM238.862 211.992C237.472 211.553 236.053 211.134 234.646 210.749L234.849 210.075C236.266 210.463 237.694 210.884 239.093 211.326L238.862 211.992ZM173.67 210.845L173.464 210.172C174.879 209.78 176.322 209.41 177.754 209.072L177.931 209.753C176.508 210.088 175.075 210.456 173.67 210.845ZM230.381 209.67C228.961 209.34 227.511 209.033 226.073 208.757L226.218 208.069C227.666 208.347 229.125 208.656 230.555 208.989L230.381 209.67ZM182.235 208.826L182.087 208.139C183.529 207.858 185 207.6 186.457 207.374L186.575 208.066C185.128 208.291 183.667 208.547 182.235 208.826ZM221.731 208.01C220.284 207.791 218.814 207.596 217.36 207.432L217.446 206.735C218.91 206.901 220.39 207.097 221.846 207.318L221.731 208.01ZM190.944 207.473L190.855 206.777C192.318 206.607 193.805 206.463 195.274 206.349L195.334 207.048C193.874 207.161 192.397 207.304 190.944 207.473ZM212.968 207.021C211.51 206.913 210.028 206.831 208.563 206.778L208.591 206.077C210.066 206.13 211.558 206.213 213.025 206.322L212.968 207.021ZM199.739 206.791L199.708 206.091C201.179 206.033 202.673 206.002 204.15 206L204.151 206.701C202.684 206.704 201.2 206.734 199.739 206.791Z" fill="#302E3F"/>
<path d="M329 277.889V258.802C322.78 257.44 316.925 254.861 311.806 251.229C306.687 247.596 302.415 242.989 299.262 237.699L299.262 237.7C297.749 238.769 295.915 239.344 294.032 239.341H278.133C282.376 249.421 289.296 258.275 298.214 265.034C307.133 271.792 317.742 276.222 329 277.889Z" fill="#3F3D56"/>
<path d="M329 257.708V239.372C329 238.031 328.724 236.703 328.185 235.463C327.647 234.224 326.858 233.098 325.863 232.149C324.868 231.201 323.687 230.449 322.387 229.935C321.087 229.422 319.694 229.158 318.287 229.159H302.851V230.929C302.853 232.065 302.612 233.189 302.145 234.234C301.677 235.278 300.991 236.221 300.13 237.005C303.18 242.171 307.32 246.678 312.289 250.241C317.258 253.805 322.948 256.347 329 257.708Z" fill="#3F3D56"/>
<path d="M254.75 239.341H244.809C242.469 239.34 240.226 238.453 238.572 236.876C236.918 235.299 235.989 233.16 235.989 230.929V229.159H221.506C220.099 229.159 218.706 229.423 217.406 229.936C216.107 230.449 214.925 231.202 213.931 232.15C212.936 233.098 212.147 234.224 211.608 235.464C211.07 236.703 210.793 238.031 210.793 239.372V466.637C210.792 467.978 211.068 469.307 211.606 470.546C212.144 471.785 212.933 472.911 213.928 473.859C214.923 474.808 216.105 475.559 217.405 476.071C218.706 476.583 220.099 476.845 221.506 476.843H318.287C318.728 476.844 319.169 476.818 319.607 476.766C322.198 476.458 324.582 475.259 326.312 473.394C328.041 471.529 328.997 469.126 329 466.637V299.336C293.8 295.448 264.471 271.505 254.75 239.341Z" fill="#3F3D56"/>
<path d="M276.927 239.341H255.912C265.585 270.909 294.411 294.396 329 298.267V278.976C317.441 277.291 306.548 272.744 297.411 265.789C288.273 258.833 281.21 249.713 276.927 239.341Z" fill="#3F3D56"/>
<path opacity="0.1" d="M245.838 473.33C246.105 473.077 252.432 466.969 257.795 452.476C262.715 439.179 267.68 415.991 263.389 381.035C255.262 314.813 296.941 272.61 297.364 272.191L296.13 271.062C296.023 271.168 285.306 281.907 275.772 300.761C263.151 325.761 258.267 353.672 261.691 381.224C269.805 447.333 244.884 471.934 244.631 472.175L245.838 473.33Z" fill="white"/>
<path opacity="0.1" d="M310.162 271.082C316.3 271.082 321.277 266.338 321.277 260.486C321.277 254.633 316.3 249.889 310.162 249.889C304.023 249.889 299.047 254.633 299.047 260.486C299.047 266.338 304.023 271.082 310.162 271.082Z" fill="black"/>
<path opacity="0.1" d="M266.372 301.163C272.511 301.163 277.487 296.419 277.487 290.567C277.487 284.715 272.511 279.97 266.372 279.97C260.234 279.97 255.257 284.715 255.257 290.567C255.257 296.419 260.234 301.163 266.372 301.163Z" fill="black"/>
<path opacity="0.1" d="M283.14 331.915C289.278 331.915 294.255 327.171 294.255 321.319C294.255 315.467 289.278 310.722 283.14 310.722C277.001 310.722 272.024 315.467 272.024 321.319C272.024 327.171 277.001 331.915 283.14 331.915Z" fill="black"/>
<path opacity="0.1" d="M249.423 346.721C255.562 346.721 260.538 341.977 260.538 336.125C260.538 330.273 255.562 325.528 249.423 325.528C243.285 325.528 238.308 330.273 238.308 336.125C238.308 341.977 243.285 346.721 249.423 346.721Z" fill="black"/>
<path opacity="0.1" d="M277.452 388.485C283.591 388.485 288.567 383.741 288.567 377.888C288.567 372.036 283.591 367.292 277.452 367.292C271.313 367.292 266.337 372.036 266.337 377.888C266.337 383.741 271.313 388.485 277.452 388.485Z" fill="black"/>
<path opacity="0.1" d="M239.218 472.19C239.218 472.19 256.505 449.365 228.979 422.821L239.218 472.19Z" fill="white"/>
<path opacity="0.1" d="M252.615 474.822C252.615 474.822 264.431 449.02 302.406 458.104L252.615 474.822Z" fill="white"/>
<path d="M317 382H223V401H317V382Z" fill="#00FF75" fill-opacity="0.52"/>
<path d="M251.889 346.231C248.143 340.922 246.516 334.508 247.304 328.154C248.092 321.8 251.243 315.925 256.185 311.595C261.126 307.265 267.532 304.767 274.24 304.554C280.949 304.34 287.515 306.426 292.749 310.432C297.982 314.438 301.537 320.099 302.767 326.389C303.998 332.679 302.824 339.182 299.457 344.717C296.09 350.252 290.754 354.454 284.416 356.561C278.078 358.667 271.158 358.538 264.912 356.198C264.507 357.576 263.749 358.837 262.708 359.868C261.667 360.899 260.373 361.667 258.944 362.104C257.514 362.542 255.994 362.634 254.517 362.374C253.041 362.113 251.656 361.508 250.485 360.612C249.315 359.716 248.396 358.557 247.81 357.24C247.224 355.922 246.991 354.486 247.13 353.061C247.269 351.636 247.776 350.267 248.607 349.074C249.438 347.882 250.565 346.905 251.889 346.231Z" fill="#F2F2F2"/>
<path d="M281.126 321.726C280.458 321.358 277.926 324.308 275.131 328.6C272.337 324.308 269.805 321.358 269.136 321.726C268.394 322.135 270.221 326.489 273.256 331.625C270.221 336.76 268.394 341.115 269.136 341.523C269.805 341.891 272.337 338.941 275.131 334.649C277.926 338.941 280.458 341.891 281.126 341.523C281.868 341.115 280.042 336.76 277.007 331.625C280.042 326.489 281.868 322.135 281.126 321.726Z" fill="#9314D6"/>
<path d="M146.649 367.159C146.649 367.159 143.657 379.382 146.221 379.382C148.785 379.382 153.914 373.678 153.914 373.678V370.418L146.649 367.159Z" fill="#A0616A"/>
<path d="M152.846 356.362L145.153 367.77H150.709L152.846 356.362Z" fill="#D0CDE1"/>
<path d="M158.402 455.776H148.144V463.925H158.402V455.776Z" fill="#A0616A"/>
<path d="M181.053 454.554L183.19 463.925L193.875 461.48L191.31 453.332L181.053 454.554Z" fill="#A0616A"/>
<path d="M148.999 370.214C148.999 370.214 145.58 371.844 145.153 379.178C144.725 386.512 146.435 405.661 146.435 405.661C146.435 405.661 144.725 414.218 146.435 421.959C148.144 429.7 144.725 457.813 146.862 457.813C148.999 457.813 160.111 459.036 160.539 457.813C160.966 456.591 161.393 438.256 161.393 438.256C161.393 438.256 164.812 428.885 161.393 423.181C161.393 423.181 169.086 429.293 169.086 430.922C169.086 432.552 177.207 457.813 181.053 458.221C184.9 458.628 195.584 457.813 193.447 454.146C191.31 450.479 186.182 433.774 186.182 433.774C186.182 433.774 182.335 421.551 175.497 416.255L178.916 390.179C178.916 390.179 186.182 372.659 181.908 370.214C177.634 367.77 148.999 370.214 148.999 370.214Z" fill="#030304"/>
<path d="M161.821 303.802C167.958 303.802 172.933 299.059 172.933 293.209C172.933 287.358 167.958 282.615 161.821 282.615C155.684 282.615 150.709 287.358 150.709 293.209C150.709 299.059 155.684 303.802 161.821 303.802Z" fill="#A0616A"/>
<path d="M156.265 299.728C156.265 299.728 160.539 313.173 159.256 314.803C157.974 316.433 172.933 305.839 172.933 305.839C172.933 305.839 167.377 302.172 169.514 296.876L156.265 299.728Z" fill="#A0616A"/>
<path d="M174.215 304.617C174.215 304.617 169.086 306.247 166.522 309.099C163.958 311.951 157.974 312.358 157.974 312.358C157.974 312.358 152.685 315.198 150.709 320.1C148.603 325.323 149.827 332.678 150.709 334.36C152.418 337.619 152.418 345.768 152.418 345.768L150.281 364.51C150.281 364.51 142.588 371.437 148.572 372.251C154.555 373.066 165.24 371.844 171.651 372.251C178.061 372.659 185.327 373.474 183.19 369.399C181.053 365.325 178.489 362.473 181.053 354.324C183.06 347.948 182.973 324.106 182.84 314.038C182.822 312.656 182.433 311.3 181.71 310.101C180.987 308.902 179.955 307.9 178.711 307.189L174.215 304.617Z" fill="#D0CDE1"/>
<path d="M157.547 366.955C157.547 366.955 155.602 371.036 155.41 373.474C153.914 392.42 164.812 373.474 164.812 373.474V370.214L157.547 366.955Z" fill="#A0616A"/>
<path d="M187.464 460.665C187.464 460.665 181.053 456.184 181.053 458.628C181.053 461.073 173.788 470.851 173.788 470.851C173.788 470.851 161.821 479 171.651 479C181.481 479 185.754 477.37 185.754 477.37L196.012 470.851C196.012 470.851 198.576 467.999 197.721 464.74C196.867 461.48 193.875 456.998 193.875 456.998C193.875 456.998 190.456 461.48 187.464 460.665Z" fill="#0D0D0E"/>
<path d="M149.854 461.888C149.854 461.888 148.999 457.813 146.007 459.85C143.016 461.888 134.895 467.999 134.895 467.999C134.895 467.999 119.937 471.259 129.339 475.333C138.742 479.407 160.111 473.703 160.111 473.703C160.111 473.703 160.966 460.665 160.111 461.073C159.256 461.48 150.281 462.703 149.854 461.888Z" fill="#060607"/>
<path opacity="0.1" d="M168.018 317.451L169.3 342.305L156.876 366.293L154.769 365.529L167.591 343.12L168.018 317.451Z" fill="black"/>
<path d="M178.061 309.914L181.267 309.302C181.267 309.302 190.883 316.025 187.891 329.471C184.9 342.916 171.651 363.288 171.651 363.288C171.651 363.288 168.659 366.955 167.804 367.77C166.949 368.585 165.24 367.77 166.095 368.992C166.949 370.214 164.812 371.029 164.812 371.029C164.812 371.029 155.41 371.029 156.265 367.77C157.119 364.51 171.651 341.286 171.651 341.286L169.514 319.692C169.514 319.692 167.804 309.099 178.061 309.914Z" fill="#D0CDE1"/>
<path opacity="0.1" d="M182.122 347.602V344.749L167.591 367.566L182.122 347.602Z" fill="black"/>
<path d="M153.936 283.395L152.099 282.694C152.099 282.694 155.94 278.663 161.284 279.014L159.781 277.436C159.781 277.436 163.455 276.034 166.795 279.715C168.551 281.65 170.582 283.924 171.849 286.486H173.816L172.995 288.21L175.869 289.933L172.919 289.624C173.198 291.112 173.103 292.642 172.64 294.087L172.719 295.45C172.719 295.45 169.3 290.407 169.3 289.705V291.458C169.3 291.458 167.463 289.881 167.463 288.829L166.461 290.056L165.96 288.128L159.781 290.056L160.783 288.478L156.942 289.004L158.445 287.076C158.445 287.076 154.103 289.355 153.936 291.283C153.769 293.211 151.598 295.665 151.598 295.665L150.596 293.912C150.596 293.912 149.093 286.025 153.936 283.395Z" fill="black"/>
</g>
<path d="M87.4343 540.288C85.7223 540.288 84.1703 539.92 82.7783 539.184C81.4023 538.432 80.3143 537.4 79.5143 536.088C78.7303 534.76 78.3383 533.264 78.3383 531.6C78.3383 529.936 78.7303 528.448 79.5143 527.136C80.3143 525.808 81.4023 524.776 82.7783 524.04C84.1703 523.288 85.7303 522.912 87.4583 522.912C88.9143 522.912 90.2263 523.168 91.3943 523.68C92.5783 524.192 93.5703 524.928 94.3703 525.888L91.8743 528.192C90.7383 526.88 89.3303 526.224 87.6503 526.224C86.6103 526.224 85.6823 526.456 84.8663 526.92C84.0503 527.368 83.4103 528 82.9463 528.816C82.4983 529.632 82.2743 530.56 82.2743 531.6C82.2743 532.64 82.4983 533.568 82.9463 534.384C83.4103 535.2 84.0503 535.84 84.8663 536.304C85.6823 536.752 86.6103 536.976 87.6503 536.976C89.3303 536.976 90.7383 536.312 91.8743 534.984L94.3703 537.288C93.5703 538.264 92.5783 539.008 91.3943 539.52C90.2103 540.032 88.8903 540.288 87.4343 540.288ZM104.78 540.288C103.036 540.288 101.46 539.912 100.052 539.16C98.6603 538.408 97.5643 537.376 96.7643 536.064C95.9803 534.736 95.5883 533.248 95.5883 531.6C95.5883 529.952 95.9803 528.472 96.7643 527.16C97.5643 525.832 98.6603 524.792 100.052 524.04C101.46 523.288 103.036 522.912 104.78 522.912C106.524 522.912 108.092 523.288 109.484 524.04C110.876 524.792 111.972 525.832 112.772 527.16C113.572 528.472 113.972 529.952 113.972 531.6C113.972 533.248 113.572 534.736 112.772 536.064C111.972 537.376 110.876 538.408 109.484 539.16C108.092 539.912 106.524 540.288 104.78 540.288ZM104.78 536.976C105.772 536.976 106.668 536.752 107.468 536.304C108.268 535.84 108.892 535.2 109.34 534.384C109.804 533.568 110.036 532.64 110.036 531.6C110.036 530.56 109.804 529.632 109.34 528.816C108.892 528 108.268 527.368 107.468 526.92C106.668 526.456 105.772 526.224 104.78 526.224C103.788 526.224 102.892 526.456 102.092 526.92C101.292 527.368 100.66 528 100.196 528.816C99.7483 529.632 99.5243 530.56 99.5243 531.6C99.5243 532.64 99.7483 533.568 100.196 534.384C100.66 535.2 101.292 535.84 102.092 536.304C102.892 536.752 103.788 536.976 104.78 536.976ZM132.302 523.2V540H129.11L120.734 529.8V540H116.894V523.2H120.11L128.462 533.4V523.2H132.302ZM151.685 523.2V540H148.493L140.117 529.8V540H136.277V523.2H139.493L147.845 533.4V523.2H151.685ZM168.668 536.88V540H155.66V523.2H168.356V526.32H159.524V529.968H167.324V532.992H159.524V536.88H168.668ZM179.755 540.288C178.043 540.288 176.491 539.92 175.099 539.184C173.723 538.432 172.635 537.4 171.835 536.088C171.051 534.76 170.659 533.264 170.659 531.6C170.659 529.936 171.051 528.448 171.835 527.136C172.635 525.808 173.723 524.776 175.099 524.04C176.491 523.288 178.051 522.912 179.779 522.912C181.235 522.912 182.547 523.168 183.715 523.68C184.899 524.192 185.891 524.928 186.691 525.888L184.195 528.192C183.059 526.88 181.651 526.224 179.971 526.224C178.931 526.224 178.003 526.456 177.187 526.92C176.371 527.368 175.731 528 175.267 528.816C174.819 529.632 174.595 530.56 174.595 531.6C174.595 532.64 174.819 533.568 175.267 534.384C175.731 535.2 176.371 535.84 177.187 536.304C178.003 536.752 178.931 536.976 179.971 536.976C181.651 536.976 183.059 536.312 184.195 534.984L186.691 537.288C185.891 538.264 184.899 539.008 183.715 539.52C182.531 540.032 181.211 540.288 179.755 540.288ZM192.632 526.368H187.256V523.2H201.896V526.368H196.52V540H192.632V526.368ZM203.988 523.2H207.876V540H203.988V523.2ZM219.999 540.288C218.255 540.288 216.679 539.912 215.271 539.16C213.879 538.408 212.783 537.376 211.983 536.064C211.199 534.736 210.807 533.248 210.807 531.6C210.807 529.952 211.199 528.472 211.983 527.16C212.783 525.832 213.879 524.792 215.271 524.04C216.679 523.288 218.255 522.912 219.999 522.912C221.743 522.912 223.311 523.288 224.703 524.04C226.095 524.792 227.191 525.832 227.991 527.16C228.791 528.472 229.191 529.952 229.191 531.6C229.191 533.248 228.791 534.736 227.991 536.064C227.191 537.376 226.095 538.408 224.703 539.16C223.311 539.912 221.743 540.288 219.999 540.288ZM219.999 536.976C220.991 536.976 221.887 536.752 222.687 536.304C223.487 535.84 224.111 535.2 224.559 534.384C225.023 533.568 225.255 532.64 225.255 531.6C225.255 530.56 225.023 529.632 224.559 528.816C224.111 528 223.487 527.368 222.687 526.92C221.887 526.456 220.991 526.224 219.999 526.224C219.007 526.224 218.111 526.456 217.311 526.92C216.511 527.368 215.879 528 215.415 528.816C214.967 529.632 214.743 530.56 214.743 531.6C214.743 532.64 214.967 533.568 215.415 534.384C215.879 535.2 216.511 535.84 217.311 536.304C218.111 536.752 219.007 536.976 219.999 536.976ZM247.521 523.2V540H244.329L235.953 529.8V540H232.113V523.2H235.329L243.681 533.4V523.2H247.521ZM271.301 536.88V540H258.293V523.2H270.989V526.32H262.157V529.968H269.957V532.992H262.157V536.88H271.301ZM285.098 540L281.858 535.32H281.666H278.282V540H274.394V523.2H281.666C283.154 523.2 284.442 523.448 285.53 523.944C286.634 524.44 287.482 525.144 288.074 526.056C288.666 526.968 288.962 528.048 288.962 529.296C288.962 530.544 288.658 531.624 288.05 532.536C287.458 533.432 286.61 534.12 285.506 534.6L289.274 540H285.098ZM285.026 529.296C285.026 528.352 284.722 527.632 284.114 527.136C283.506 526.624 282.618 526.368 281.45 526.368H278.282V532.224H281.45C282.618 532.224 283.506 531.968 284.114 531.456C284.722 530.944 285.026 530.224 285.026 529.296ZM302.747 540L299.507 535.32H299.315H295.931V540H292.043V523.2H299.315C300.803 523.2 302.091 523.448 303.179 523.944C304.283 524.44 305.131 525.144 305.723 526.056C306.315 526.968 306.611 528.048 306.611 529.296C306.611 530.544 306.307 531.624 305.699 532.536C305.107 533.432 304.259 534.12 303.155 534.6L306.923 540H302.747ZM302.675 529.296C302.675 528.352 302.371 527.632 301.763 527.136C301.155 526.624 300.267 526.368 299.099 526.368H295.931V532.224H299.099C300.267 532.224 301.155 531.968 301.763 531.456C302.371 530.944 302.675 530.224 302.675 529.296ZM317.827 540.288C316.083 540.288 314.507 539.912 313.099 539.16C311.707 538.408 310.611 537.376 309.811 536.064C309.027 534.736 308.635 533.248 308.635 531.6C308.635 529.952 309.027 528.472 309.811 527.16C310.611 525.832 311.707 524.792 313.099 524.04C314.507 523.288 316.083 522.912 317.827 522.912C319.571 522.912 321.139 523.288 322.531 524.04C323.923 524.792 325.019 525.832 325.819 527.16C326.619 528.472 327.019 529.952 327.019 531.6C327.019 533.248 326.619 534.736 325.819 536.064C325.019 537.376 323.923 538.408 322.531 539.16C321.139 539.912 319.571 540.288 317.827 540.288ZM317.827 536.976C318.819 536.976 319.715 536.752 320.515 536.304C321.315 535.84 321.939 535.2 322.387 534.384C322.851 533.568 323.083 532.64 323.083 531.6C323.083 530.56 322.851 529.632 322.387 528.816C321.939 528 321.315 527.368 320.515 526.92C319.715 526.456 318.819 526.224 317.827 526.224C316.835 526.224 315.939 526.456 315.139 526.92C314.339 527.368 313.707 528 313.243 528.816C312.795 529.632 312.571 530.56 312.571 531.6C312.571 532.64 312.795 533.568 313.243 534.384C313.707 535.2 314.339 535.84 315.139 536.304C315.939 536.752 316.835 536.976 317.827 536.976ZM340.645 540L337.405 535.32H337.213H333.829V540H329.941V523.2H337.213C338.701 523.2 339.989 523.448 341.077 523.944C342.181 524.44 343.029 525.144 343.621 526.056C344.213 526.968 344.509 528.048 344.509 529.296C344.509 530.544 344.205 531.624 343.597 532.536C343.005 533.432 342.157 534.12 341.053 534.6L344.821 540H340.645ZM340.573 529.296C340.573 528.352 340.269 527.632 339.661 527.136C339.053 526.624 338.165 526.368 336.997 526.368H333.829V532.224H336.997C338.165 532.224 339.053 531.968 339.661 531.456C340.269 530.944 340.573 530.224 340.573 529.296Z" fill="url(#paint1_linear)"/>
<path d="M51.5776 590.2L44.3056 607H40.4656L33.2176 590.2H37.4176L42.5296 602.2L47.7136 590.2H51.5776ZM65.9883 603.88V607H52.9803V590.2H65.6763V593.32H56.8443V596.968H64.6443V599.992H56.8443V603.88H65.9883ZM79.7858 607L76.5458 602.32H76.3538H72.9698V607H69.0818V590.2H76.3538C77.8418 590.2 79.1298 590.448 80.2178 590.944C81.3218 591.44 82.1698 592.144 82.7618 593.056C83.3538 593.968 83.6498 595.048 83.6498 596.296C83.6498 597.544 83.3458 598.624 82.7378 599.536C82.1458 600.432 81.2978 601.12 80.1938 601.6L83.9618 607H79.7858ZM79.7138 596.296C79.7138 595.352 79.4098 594.632 78.8018 594.136C78.1938 593.624 77.3058 593.368 76.1378 593.368H72.9698V599.224H76.1378C77.3058 599.224 78.1938 598.968 78.8018 598.456C79.4098 597.944 79.7138 597.224 79.7138 596.296ZM86.7303 590.2H90.6183V607H86.7303V590.2ZM98.4933 593.32V597.76H106.269V600.88H98.4933V607H94.6053V590.2H107.301V593.32H98.4933ZM109.933 590.2H113.821V607H109.933V590.2ZM135.976 608.8C135.432 609.472 134.768 609.984 133.984 610.336C133.216 610.688 132.368 610.864 131.44 610.864C130.192 610.864 129.064 610.592 128.056 610.048C127.048 609.52 125.896 608.576 124.6 607.216C123.08 607.024 121.72 606.536 120.52 605.752C119.336 604.968 118.408 603.96 117.736 602.728C117.08 601.48 116.752 600.104 116.752 598.6C116.752 596.952 117.144 595.472 117.928 594.16C118.728 592.832 119.824 591.792 121.216 591.04C122.624 590.288 124.2 589.912 125.944 589.912C127.688 589.912 129.256 590.288 130.648 591.04C132.04 591.792 133.136 592.832 133.936 594.16C134.736 595.472 135.136 596.952 135.136 598.6C135.136 600.552 134.584 602.264 133.48 603.736C132.392 605.208 130.944 606.232 129.136 606.808C129.536 607.224 129.92 607.52 130.288 607.696C130.672 607.888 131.08 607.984 131.512 607.984C132.552 607.984 133.464 607.568 134.248 606.736L135.976 608.8ZM120.688 598.6C120.688 599.64 120.912 600.568 121.36 601.384C121.824 602.2 122.456 602.84 123.256 603.304C124.056 603.752 124.952 603.976 125.944 603.976C126.936 603.976 127.832 603.752 128.632 603.304C129.432 602.84 130.056 602.2 130.504 601.384C130.968 600.568 131.2 599.64 131.2 598.6C131.2 597.56 130.968 596.632 130.504 595.816C130.056 595 129.432 594.368 128.632 593.92C127.832 593.456 126.936 593.224 125.944 593.224C124.952 593.224 124.056 593.456 123.256 593.92C122.456 594.368 121.824 595 121.36 595.816C120.912 596.632 120.688 597.56 120.688 598.6ZM145.522 607.288C143.122 607.288 141.25 606.624 139.906 605.296C138.578 603.968 137.914 602.072 137.914 599.608V590.2H141.802V599.464C141.802 602.472 143.05 603.976 145.546 603.976C146.762 603.976 147.69 603.616 148.33 602.896C148.97 602.16 149.29 601.016 149.29 599.464V590.2H153.13V599.608C153.13 602.072 152.458 603.968 151.114 605.296C149.786 606.624 147.922 607.288 145.522 607.288ZM169.98 603.88V607H156.972V590.2H169.668V593.32H160.836V596.968H168.636V599.992H160.836V603.88H169.98ZM190.935 603.4H183.135L181.647 607H177.663L185.151 590.2H188.991L196.503 607H192.423L190.935 603.4ZM189.711 600.448L187.047 594.016L184.383 600.448H189.711ZM210.563 607.288C209.235 607.288 207.947 607.112 206.699 606.76C205.467 606.392 204.475 605.92 203.723 605.344L205.043 602.416C205.763 602.944 206.619 603.368 207.611 603.688C208.603 604.008 209.595 604.168 210.587 604.168C211.691 604.168 212.507 604.008 213.035 603.688C213.563 603.352 213.827 602.912 213.827 602.368C213.827 601.968 213.667 601.64 213.347 601.384C213.043 601.112 212.643 600.896 212.147 600.736C211.667 600.576 211.011 600.4 210.179 600.208C208.899 599.904 207.851 599.6 207.035 599.296C206.219 598.992 205.515 598.504 204.923 597.832C204.347 597.16 204.059 596.264 204.059 595.144C204.059 594.168 204.323 593.288 204.851 592.504C205.379 591.704 206.171 591.072 207.227 590.608C208.299 590.144 209.603 589.912 211.139 589.912C212.211 589.912 213.259 590.04 214.283 590.296C215.307 590.552 216.203 590.92 216.971 591.4L215.771 594.352C214.219 593.472 212.667 593.032 211.115 593.032C210.027 593.032 209.219 593.208 208.691 593.56C208.179 593.912 207.923 594.376 207.923 594.952C207.923 595.528 208.219 595.96 208.811 596.248C209.419 596.52 210.339 596.792 211.571 597.064C212.851 597.368 213.899 597.672 214.715 597.976C215.531 598.28 216.227 598.76 216.803 599.416C217.395 600.072 217.691 600.96 217.691 602.08C217.691 603.04 217.419 603.92 216.875 604.72C216.347 605.504 215.547 606.128 214.475 606.592C213.403 607.056 212.099 607.288 210.563 607.288ZM227.811 607.288C225.411 607.288 223.539 606.624 222.195 605.296C220.867 603.968 220.203 602.072 220.203 599.608V590.2H224.091V599.464C224.091 602.472 225.339 603.976 227.835 603.976C229.051 603.976 229.979 603.616 230.619 602.896C231.259 602.16 231.579 601.016 231.579 599.464V590.2H235.419V599.608C235.419 602.072 234.747 603.968 233.403 605.296C232.075 606.624 230.211 607.288 227.811 607.288ZM249.974 603.4H242.174L240.686 607H236.702L244.19 590.2H248.03L255.542 607H251.462L249.974 603.4ZM248.75 600.448L246.086 594.016L243.422 600.448H248.75ZM272.122 607.288C270.41 607.288 268.858 606.92 267.466 606.184C266.09 605.432 265.002 604.4 264.202 603.088C263.418 601.76 263.026 600.264 263.026 598.6C263.026 596.936 263.418 595.448 264.202 594.136C265.002 592.808 266.09 591.776 267.466 591.04C268.858 590.288 270.418 589.912 272.146 589.912C273.602 589.912 274.914 590.168 276.082 590.68C277.266 591.192 278.258 591.928 279.058 592.888L276.562 595.192C275.426 593.88 274.018 593.224 272.338 593.224C271.298 593.224 270.37 593.456 269.554 593.92C268.738 594.368 268.098 595 267.634 595.816C267.186 596.632 266.962 597.56 266.962 598.6C266.962 599.64 267.186 600.568 267.634 601.384C268.098 602.2 268.738 602.84 269.554 603.304C270.37 603.752 271.298 603.976 272.338 603.976C274.018 603.976 275.426 603.312 276.562 601.984L279.058 604.288C278.258 605.264 277.266 606.008 276.082 606.52C274.898 607.032 273.578 607.288 272.122 607.288ZM289.468 607.288C287.724 607.288 286.148 606.912 284.74 606.16C283.348 605.408 282.252 604.376 281.452 603.064C280.668 601.736 280.276 600.248 280.276 598.6C280.276 596.952 280.668 595.472 281.452 594.16C282.252 592.832 283.348 591.792 284.74 591.04C286.148 590.288 287.724 589.912 289.468 589.912C291.212 589.912 292.78 590.288 294.172 591.04C295.564 591.792 296.66 592.832 297.46 594.16C298.26 595.472 298.66 596.952 298.66 598.6C298.66 600.248 298.26 601.736 297.46 603.064C296.66 604.376 295.564 605.408 294.172 606.16C292.78 606.912 291.212 607.288 289.468 607.288ZM289.468 603.976C290.46 603.976 291.356 603.752 292.156 603.304C292.956 602.84 293.58 602.2 294.028 601.384C294.492 600.568 294.724 599.64 294.724 598.6C294.724 597.56 294.492 596.632 294.028 595.816C293.58 595 292.956 594.368 292.156 593.92C291.356 593.456 290.46 593.224 289.468 593.224C288.476 593.224 287.58 593.456 286.78 593.92C285.98 594.368 285.348 595 284.884 595.816C284.436 596.632 284.212 597.56 284.212 598.6C284.212 599.64 284.436 600.568 284.884 601.384C285.348 602.2 285.98 602.84 286.78 603.304C287.58 603.752 288.476 603.976 289.468 603.976ZM316.99 590.2V607H313.798L305.422 596.8V607H301.582V590.2H304.798L313.15 600.4V590.2H316.99ZM333.973 603.88V607H320.965V590.2H333.661V593.32H324.829V596.968H332.629V599.992H324.829V603.88H333.973ZM347.486 607L343.43 601.168L339.446 607H334.982L341.198 598.456L335.294 590.2H339.71L343.574 595.648L347.366 590.2H351.566L345.71 598.312L351.974 607H347.486ZM364.232 603.4H356.432L354.944 607H350.96L358.448 590.2H362.288L369.8 607H365.72L364.232 603.4ZM363.008 600.448L360.344 594.016L357.68 600.448H363.008ZM362.168 588.904C361.736 588.904 361.352 588.824 361.016 588.664C360.696 588.488 360.336 588.256 359.936 587.968C359.68 587.776 359.464 587.632 359.288 587.536C359.128 587.44 358.968 587.392 358.808 587.392C358.472 587.392 358.2 587.512 357.992 587.752C357.784 587.976 357.672 588.304 357.656 588.736H355.76C355.792 587.664 356.056 586.816 356.552 586.192C357.064 585.552 357.736 585.232 358.568 585.232C358.984 585.232 359.352 585.32 359.672 585.496C360.008 585.656 360.384 585.888 360.8 586.192C361.056 586.384 361.264 586.528 361.424 586.624C361.6 586.72 361.768 586.768 361.928 586.768C362.248 586.768 362.512 586.656 362.72 586.432C362.944 586.192 363.064 585.872 363.08 585.472H364.976C364.944 586.512 364.672 587.344 364.16 587.968C363.664 588.592 363 588.904 362.168 588.904ZM379.444 607.288C377.7 607.288 376.124 606.912 374.716 606.16C373.324 605.408 372.228 604.376 371.428 603.064C370.644 601.736 370.252 600.248 370.252 598.6C370.252 596.952 370.644 595.472 371.428 594.16C372.228 592.832 373.324 591.792 374.716 591.04C376.124 590.288 377.7 589.912 379.444 589.912C381.188 589.912 382.756 590.288 384.148 591.04C385.54 591.792 386.636 592.832 387.436 594.16C388.236 595.472 388.636 596.952 388.636 598.6C388.636 600.248 388.236 601.736 387.436 603.064C386.636 604.376 385.54 605.408 384.148 606.16C382.756 606.912 381.188 607.288 379.444 607.288ZM379.444 603.976C380.436 603.976 381.332 603.752 382.132 603.304C382.932 602.84 383.556 602.2 384.004 601.384C384.468 600.568 384.7 599.64 384.7 598.6C384.7 597.56 384.468 596.632 384.004 595.816C383.556 595 382.932 594.368 382.132 593.92C381.332 593.456 380.436 593.224 379.444 593.224C378.452 593.224 377.556 593.456 376.756 593.92C375.956 594.368 375.324 595 374.86 595.816C374.412 596.632 374.188 597.56 374.188 598.6C374.188 599.64 374.412 600.568 374.86 601.384C375.324 602.2 375.956 602.84 376.756 603.304C377.556 603.752 378.452 603.976 379.444 603.976Z" fill="#D7CFCF" fill-opacity="0.83"/>
</g>
<defs>
<filter id="filter0_dd" x="0" y="0" width="422" height="904" filterUnits="userSpaceOnUse" color-interpolation-filters="sRGB">
<feFlood flood-opacity="0" result="BackgroundImageFix"/>
<feColorMatrix in="SourceAlpha" type="matrix" values="0 0 0 0 0 0 0 0 0 0 0 0 0 0 0 0 0 0 127 0"/>
<feOffset dy="4"/>
<feGaussianBlur stdDeviation="2"/>
<feColorMatrix type="matrix" values="0 0 0 0 0 0 0 0 0 0 0 0 0 0 0 0 0 0 0.25 0"/>
<feBlend mode="normal" in2="BackgroundImageFix" result="effect1_dropShadow"/>
<feColorMatrix in="SourceAlpha" type="matrix" values="0 0 0 0 0 0 0 0 0 0 0 0 0 0 0 0 0 0 127 0"/>
<feOffset dy="4"/>
<feGaussianBlur stdDeviation="2"/>
<feColorMatrix type="matrix" values="0 0 0 0 0 0 0 0 0 0 0 0 0 0 0 0 0 0 0.25 0"/>
<feBlend mode="normal" in2="effect1_dropShadow" result="effect2_dropShadow"/>
<feBlend mode="normal" in="SourceGraphic" in2="effect2_dropShadow" result="shape"/>
</filter>
<linearGradient id="paint0_linear" x1="417" y1="151" x2="4.99999" y2="896" gradientUnits="userSpaceOnUse">
<stop stop-color="#010001"/>
<stop offset="0.411458" stop-opacity="0.29"/>
</linearGradient>
<linearGradient id="paint1_linear" x1="359" y1="517" x2="77" y2="540" gradientUnits="userSpaceOnUse">
<stop stop-color="white"/>
<stop offset="1" stop-color="white" stop-opacity="0.42"/>
</linearGradient>
<clipPath id="clip0">
<rect width="414" height="896" fill="white" transform="translate(4)"/>
</clipPath>
<clipPath id="clip1">
<rect width="235" height="273" fill="white" transform="translate(94 206)"/>
</clipPath>
</defs>
</svg>
