<svg width="284" height="157" viewBox="0 0 284 157" fill="none" xmlns="http://www.w3.org/2000/svg">
<g clip-path="url(#clip0)">
<path d="M142.911 157C219.92 157 282.348 152.798 282.348 147.616C282.348 142.433 219.92 138.231 142.911 138.231C65.9024 138.231 3.47429 142.433 3.47429 147.616C3.47429 152.798 65.9024 157 142.911 157Z" fill="#F2F2F2"/>
<path d="M137.567 44.8804C114.849 44.8804 98.5376 59.698 98.5376 94.2723C98.5376 133.457 114.849 143.829 137.567 143.829C160.285 143.829 177.568 132.469 177.568 94.2723C177.568 53.4417 160.285 44.8804 137.567 44.8804ZM137.716 130.822C121.981 130.822 113.761 121.438 113.761 94.2976C113.761 70.3506 122.318 57.7223 138.053 57.7223C153.788 57.7223 162.345 66.0174 162.345 94.2976C162.345 120.753 153.451 130.822 137.716 130.822Z" fill="#2F2E41"/>
<path d="M84.934 116.499H75.541V88.379C75.541 86.8854 74.9574 85.4531 73.9186 84.397C72.8797 83.3409 71.4708 82.7475 70.0017 82.7475H67.8007C67.0733 82.7475 66.3529 82.8932 65.6809 83.1762C65.0088 83.4592 64.3981 83.874 63.8838 84.397C63.3694 84.9199 62.9614 85.5407 62.683 86.2239C62.4046 86.9072 62.2613 87.6395 62.2613 88.379V116.499H35.7669C35.2219 116.499 34.6861 116.355 34.2115 116.083C33.737 115.81 33.3398 115.418 33.0584 114.943C32.7771 114.469 32.6212 113.928 32.6059 113.374C32.5905 112.82 32.7163 112.272 32.9709 111.782L61.0122 57.8264C61.3618 57.1537 61.5737 56.4159 61.6352 55.6577C61.6966 54.8994 61.6062 54.1364 61.3695 53.4147C61.1329 52.6929 60.7548 52.0274 60.2581 51.4583C59.7615 50.8891 59.1565 50.4282 58.4798 50.1034L56.8245 49.3087C55.5391 48.6916 54.0696 48.6005 52.72 49.0542C51.3704 49.5079 50.244 50.4716 49.5739 51.7461L15.3738 116.787C14.7914 117.895 14.4867 119.131 14.4867 120.387V120.387C14.4867 121.39 14.681 122.383 15.0585 123.309C15.436 124.236 15.9892 125.078 16.6867 125.787C17.3842 126.496 18.2123 127.058 19.1236 127.442C20.0349 127.826 21.0116 128.023 21.998 128.023H62.2613V145.805C62.2613 146.691 62.4331 147.569 62.7667 148.388C63.1004 149.207 63.5895 149.951 64.2061 150.578C64.8226 151.204 65.5546 151.702 66.3602 152.041C67.1658 152.38 68.0292 152.555 68.9012 152.555H68.9012C69.7731 152.555 70.6365 152.38 71.4421 152.041C72.2477 151.702 72.9797 151.204 73.5962 150.578C74.2128 149.951 74.7019 149.207 75.0356 148.388C75.3693 147.569 75.541 146.691 75.541 145.805V128.023H84.934C86.4373 128.023 87.879 127.416 88.942 126.336C90.005 125.255 90.6022 123.789 90.6022 122.261V122.261C90.6022 120.733 90.005 119.267 88.942 118.186C87.879 117.106 86.4373 116.499 84.934 116.499V116.499Z" fill="#6C63FF"/>
<path d="M258.866 116.499H249.473V88.379C249.473 86.8854 248.889 85.4531 247.85 84.397C246.812 83.3409 245.403 82.7475 243.934 82.7475H241.733C241.005 82.7475 240.285 82.8932 239.613 83.1762C238.941 83.4592 238.33 83.874 237.816 84.397C237.301 84.9199 236.893 85.5407 236.615 86.2239C236.336 86.9072 236.193 87.6395 236.193 88.379V116.499H209.699C209.154 116.499 208.618 116.355 208.143 116.083C207.669 115.81 207.272 115.418 206.99 114.943C206.709 114.469 206.553 113.928 206.538 113.374C206.522 112.82 206.648 112.272 206.903 111.782L234.944 57.8264C235.294 57.1537 235.506 56.4159 235.567 55.6577C235.628 54.8995 235.538 54.1364 235.301 53.4147C235.065 52.6929 234.687 52.0274 234.19 51.4583C233.693 50.8891 233.088 50.4282 232.412 50.1034L230.756 49.3087C229.471 48.6916 228.001 48.6005 226.652 49.0542C225.302 49.5079 224.176 50.4716 223.506 51.7461L189.306 116.787C188.723 117.895 188.419 119.131 188.419 120.387V120.387C188.419 122.412 189.21 124.355 190.619 125.787C192.027 127.219 193.938 128.023 195.93 128.023H236.193V145.805C236.193 147.595 236.893 149.312 238.138 150.578C239.383 151.844 241.072 152.555 242.833 152.555V152.555C244.594 152.555 246.283 151.844 247.528 150.578C248.773 149.312 249.473 147.595 249.473 145.805V128.023H258.866C260.369 128.023 261.811 127.416 262.874 126.336C263.937 125.255 264.534 123.789 264.534 122.261V122.261C264.534 120.733 263.937 119.267 262.874 118.186C261.811 117.106 260.369 116.499 258.866 116.499Z" fill="#6C63FF"/>
<path d="M87.5252 113.206H78.1322V85.0862C78.1322 84.3467 77.9889 83.6144 77.7105 82.9311C77.4322 82.2479 77.0241 81.6271 76.5098 81.1042C75.9954 80.5812 75.3847 80.1664 74.7126 79.8834C74.0406 79.6004 73.3203 79.4547 72.5928 79.4547H70.3919C68.9227 79.4547 67.5138 80.0481 66.4749 81.1042C65.4361 82.1603 64.8525 83.5926 64.8525 85.0862V113.206H38.3581C37.8131 113.206 37.2773 113.063 36.8027 112.79C36.3282 112.518 35.9309 112.125 35.6496 111.65C35.3683 111.176 35.2124 110.635 35.197 110.081C35.1817 109.528 35.3074 108.979 35.5621 108.489L63.6034 54.5336C63.953 53.8609 64.1649 53.1231 64.2263 52.3649C64.2877 51.6067 64.1974 50.8436 63.9607 50.1219C63.724 49.4001 63.346 48.7346 62.8493 48.1655C62.3526 47.5964 61.7477 47.1354 61.071 46.8106L59.4156 46.0159C58.1303 45.3988 56.6608 45.3077 55.3112 45.7614C53.9616 46.2151 52.8352 47.1788 52.1651 48.4533L17.965 113.495C17.3826 114.602 17.0779 115.839 17.0779 117.094V117.094C17.0779 119.12 17.8693 121.062 19.2779 122.494C20.6866 123.926 22.5971 124.731 24.5892 124.731H64.8525V142.512C64.8525 143.398 65.0242 144.276 65.3579 145.095C65.6916 145.914 66.1807 146.658 66.7973 147.285C67.4138 147.912 68.1458 148.409 68.9514 148.748C69.757 149.087 70.6204 149.262 71.4923 149.262H71.4923C73.2533 149.262 74.9422 148.551 76.1874 147.285C77.4326 146.019 78.1322 144.302 78.1322 142.512V124.731H87.5252C88.2695 124.731 89.0066 124.582 89.6943 124.292C90.382 124.002 91.0068 123.578 91.5332 123.043C92.0595 122.508 92.477 121.873 92.7619 121.173C93.0467 120.474 93.1933 119.725 93.1933 118.968V118.968C93.1933 118.212 93.0467 117.462 92.7619 116.763C92.477 116.064 92.0595 115.429 91.5332 114.894C91.0068 114.359 90.382 113.934 89.6943 113.645C89.0066 113.355 88.2695 113.206 87.5252 113.206V113.206Z" stroke="#3F3D56" stroke-miterlimit="10"/>
<path d="M263.724 113.206H254.331V85.0862C254.331 83.5926 253.748 82.1603 252.709 81.1042C251.67 80.0481 250.261 79.4547 248.792 79.4547H246.591C245.864 79.4547 245.143 79.6004 244.471 79.8834C243.799 80.1664 243.188 80.5812 242.674 81.1042C242.16 81.6271 241.752 82.2479 241.473 82.9311C241.195 83.6144 241.052 84.3467 241.052 85.0862V113.206H214.557C214.012 113.206 213.476 113.063 213.002 112.79C212.527 112.518 212.13 112.125 211.849 111.65C211.567 111.176 211.412 110.635 211.396 110.081C211.381 109.528 211.507 108.979 211.761 108.489L239.803 54.5336C240.152 53.8609 240.364 53.1231 240.425 52.3649C240.487 51.6067 240.397 50.8436 240.16 50.1219C239.923 49.4001 239.545 48.7346 239.048 48.1655C238.552 47.5964 237.947 47.1354 237.27 46.8106L235.615 46.0159C234.329 45.3988 232.86 45.3077 231.51 45.7614C230.161 46.2151 229.034 47.1788 228.364 48.4533L194.164 113.495C193.582 114.602 193.277 115.839 193.277 117.094C193.277 119.12 194.068 121.062 195.477 122.494C196.886 123.926 198.796 124.731 200.788 124.731H241.052V142.512C241.052 144.302 241.751 146.019 242.996 147.285C244.242 148.551 245.93 149.262 247.691 149.262V149.262C249.452 149.262 251.141 148.551 252.387 147.285C253.632 146.019 254.331 144.302 254.331 142.512V124.731H263.724C264.469 124.731 265.206 124.582 265.893 124.292C266.581 124.002 267.206 123.578 267.732 123.043C268.259 122.508 268.676 121.873 268.961 121.173C269.246 120.474 269.392 119.725 269.392 118.968V118.968C269.392 117.44 268.795 115.974 267.732 114.894C266.669 113.813 265.228 113.206 263.724 113.206V113.206Z" stroke="#3F3D56" stroke-miterlimit="10"/>
<path d="M142.749 41.9169C120.031 41.9169 103.72 56.7345 103.72 91.3088C103.72 130.493 120.031 140.865 142.749 140.865C165.467 140.865 182.75 129.505 182.75 91.3088C182.75 50.4782 165.467 41.9169 142.749 41.9169ZM142.899 127.859C127.164 127.859 118.943 118.474 118.943 91.3341C118.943 67.3871 127.5 54.7588 143.235 54.7588C158.97 54.7588 167.527 63.0539 167.527 91.3341C167.527 117.79 158.634 127.859 142.899 127.859V127.859Z" stroke="#3F3D56" stroke-miterlimit="10"/>
<path d="M124.539 8.37134C126.423 8.37134 127.95 6.81915 127.95 4.90442C127.95 2.98969 126.423 1.43749 124.539 1.43749C122.656 1.43749 121.129 2.98969 121.129 4.90442C121.129 6.81915 122.656 8.37134 124.539 8.37134Z" fill="#2F2E41"/>
<path d="M132.857 25.1986C138.14 25.1986 142.422 19.5577 142.422 12.5993C142.422 5.6409 138.14 0 132.857 0C127.574 0 123.292 5.6409 123.292 12.5993C123.292 19.5577 127.574 25.1986 132.857 25.1986Z" fill="#2F2E41"/>
<path opacity="0.1" d="M132.857 21.3935C128.065 21.3935 124.097 16.7524 123.4 10.6967C123.328 11.3282 123.292 11.9635 123.292 12.5993C123.292 19.5577 127.574 25.1986 132.857 25.1986C138.14 25.1986 142.422 19.5577 142.422 12.5993C142.422 11.9635 142.386 11.3282 142.314 10.6967C141.617 16.7524 137.649 21.3935 132.857 21.3935Z" fill="black"/>
<path d="M152.321 49.4969C152.116 50.3551 151.23 51.0424 150.249 51.5226C148.187 52.5321 145.643 52.8334 143.176 52.9345C142.546 52.9734 141.915 52.9616 141.287 52.8991C140.071 52.7795 138.93 52.2463 138.049 51.3857C137.986 51.344 137.934 51.2868 137.899 51.2195C137.864 51.1521 137.846 51.0767 137.847 51.0004C137.848 50.924 137.869 50.8493 137.906 50.783C137.943 50.7168 137.996 50.6612 138.06 50.6215C139.374 49.1545 141.566 48.2551 143.774 47.6074C145.449 47.1163 148.369 45.8443 150.195 46.016C151.964 46.1822 152.581 48.4134 152.321 49.4969Z" fill="#3F3D56"/>
<path opacity="0.1" d="M152.321 49.4969C152.116 50.3551 151.23 51.0424 150.249 51.5226C148.187 52.5321 145.643 52.8334 143.176 52.9345C142.546 52.9734 141.915 52.9616 141.287 52.8991C140.071 52.7795 138.93 52.2463 138.049 51.3857C137.986 51.344 137.934 51.2868 137.899 51.2195C137.864 51.1521 137.846 51.0767 137.847 51.0004C137.848 50.924 137.869 50.8493 137.906 50.783C137.943 50.7168 137.996 50.6612 138.06 50.6215C139.374 49.1545 141.566 48.2551 143.774 47.6074C145.449 47.1163 148.369 45.8443 150.195 46.016C151.964 46.1822 152.581 48.4134 152.321 49.4969Z" fill="black"/>
<path d="M126.1 43.0831C125.47 44.3373 125.356 45.7944 125.783 47.1341C126.217 48.4636 127.029 49.6324 128.117 50.4923C130.785 52.6668 134.458 52.966 137.877 52.9358C140.874 52.9093 143.867 52.7008 146.84 52.3114C147.836 52.2216 148.815 51.9906 149.748 51.6249C150.864 51.134 151.845 50.2335 152.242 49.0651C152.639 47.8966 152.357 46.4658 151.414 45.686C150.584 45.0008 149.441 44.9066 148.374 44.8414L142.271 44.4686C142.874 43.8482 143.677 43.4974 144.411 43.0464C145.386 42.4481 146.033 41.4436 146.741 40.5379C147.832 39.2119 149.02 37.9708 150.293 36.8249C150.492 37.9832 151.213 38.9344 152.061 39.7336C152.909 40.5328 153.887 41.1762 154.769 41.9372C156.904 43.7803 158.442 46.2817 160.688 47.9837C162.233 47.571 163.677 46.838 164.93 45.8306L164.057 44.2232C163.984 44.0578 163.871 43.9141 163.728 43.8059C163.481 43.6514 163.163 43.731 162.876 43.6873C162.109 43.5704 161.774 42.6704 161.473 41.944C160.647 39.9495 159.066 38.4021 157.715 36.7296C156.718 35.495 155.834 34.1707 155.073 32.7731C154.619 31.9396 154.204 31.0718 153.588 30.3537C152.972 29.6356 152.109 29.0711 151.172 29.0691C150.344 29.0673 149.581 29.4946 148.869 29.9244C146.701 31.2337 144.614 32.6786 142.622 34.2507C141.58 35.0735 140.544 35.9427 139.321 36.4473C138.806 36.6597 138.264 36.8048 137.77 37.0633C136.904 37.5159 136.248 38.2818 135.541 38.9616C133.02 41.3864 129.568 42.9574 126.1 43.0831Z" fill="#3F3D56"/>
<path d="M138.861 25.8244C138.832 26.5655 138.677 27.2961 138.402 27.9832C138.263 28.3258 138.056 28.6357 137.793 28.8933C137.531 29.151 137.219 29.3509 136.878 29.4807C136.393 29.6128 135.884 29.6296 135.391 29.5297C134.962 29.4841 134.548 29.3408 134.18 29.1103C133.608 28.7104 133.323 27.9967 133.219 27.2982C133.115 26.6006 133.161 25.8878 133.095 25.1851C133.03 24.6175 132.924 24.0556 132.777 23.5041C132.732 23.3206 132.687 23.1379 132.642 22.9553C132.598 22.7726 132.554 22.59 132.514 22.4073C132.478 22.2357 132.444 22.0632 132.415 21.8898C132.39 21.7435 132.369 21.5964 132.353 21.4484C132.338 21.0097 132.267 20.5749 132.139 20.1555C132.02 19.8835 131.87 19.6262 131.693 19.3886C131.618 19.2786 131.544 19.1687 131.477 19.0546C131.282 18.7579 131.192 18.403 131.22 18.0475C131.228 17.9925 131.241 17.9384 131.259 17.8859C131.266 17.8657 131.273 17.8454 131.282 17.8259C131.356 17.8053 131.425 17.7663 131.482 17.7126C131.539 17.6588 131.581 17.5917 131.607 17.5173C131.635 17.3573 131.622 17.1925 131.568 17.0395C131.506 16.8258 131.421 16.6196 131.314 16.4247C131.244 16.2962 131.007 16.0645 131.006 15.9174C131.002 15.6214 131.571 15.383 131.802 15.2663C132.505 14.9083 133.289 14.7466 134.074 14.7978C134.577 14.8325 135.123 14.9898 135.401 15.4185C135.65 15.8049 135.617 16.3055 135.723 16.7545C135.734 16.8198 135.762 16.8811 135.802 16.9329C135.857 16.9832 135.925 17.0151 135.998 17.0243C136.121 17.0492 136.247 17.0543 136.372 17.0395H136.373C136.406 17.0368 136.439 17.032 136.471 17.0251C136.665 16.9887 136.849 16.908 137.008 16.7892C137.112 16.7613 137.215 16.7385 137.32 16.7207C137.325 16.7203 137.329 16.7194 137.333 16.7182C137.749 18.055 137.804 19.4883 138.145 20.8497C138.313 21.527 138.555 22.1959 138.59 22.8927C138.592 22.9231 138.593 22.9544 138.594 22.9857C138.599 23.2098 138.581 23.4355 138.59 23.6588C138.594 23.7593 138.605 23.8594 138.624 23.9581C138.661 24.1169 138.707 24.2733 138.763 24.4266L138.765 24.4342C138.781 24.4832 138.796 24.5331 138.808 24.583C138.817 24.6194 138.826 24.6549 138.832 24.6912L138.833 24.6938C138.895 25.0674 138.904 25.4481 138.861 25.8244V25.8244Z" fill="#FBBEBE"/>
<path d="M133.023 17.0809C135.734 17.0809 137.931 14.8473 137.931 12.0919C137.931 9.33661 135.734 7.10296 133.023 7.10296C130.313 7.10296 128.116 9.33661 128.116 12.0919C128.116 14.8473 130.313 17.0809 133.023 17.0809Z" fill="#FBBEBE"/>
<path d="M164.18 39.2743C164.037 37.9132 163.562 36.6101 162.796 35.4844C162.923 36.2539 163.05 37.0231 163.178 37.792C163.019 37.8387 162.85 37.8373 162.692 37.7879C162.534 37.7385 162.394 37.6432 162.288 37.5138C162.082 37.2515 161.923 36.9532 161.822 36.6335C161.264 35.2265 160.535 33.8961 159.652 32.6736C156.527 32.409 153.439 31.0924 150.692 29.5576C147.944 28.0237 145.372 26.1846 142.66 24.5856C142.19 24.2967 141.7 24.0423 141.195 23.8245C140.346 23.4787 139.394 23.2994 138.59 22.8927C138.535 22.8656 138.481 22.8369 138.428 22.8073C138.246 22.7068 138.074 22.5893 137.914 22.4564C137.828 22.3849 137.745 22.3081 137.668 22.2263C137.267 21.7517 136.948 21.2106 136.727 20.6265C136.296 19.6558 136.142 18.4846 135.711 17.5139C135.909 17.3257 136.131 17.1661 136.372 17.0395H136.373C136.408 17.0209 136.443 17.0031 136.479 16.9862C136.649 16.9046 136.826 16.8387 137.008 16.7892C137.111 16.7613 137.215 16.7385 137.32 16.7207C137.324 16.7203 137.329 16.7194 137.333 16.7182C137.819 16.6377 138.317 16.6777 138.784 16.8349C139.468 17.0699 140.044 17.5392 140.619 17.9832C141.553 18.6519 142.448 19.3741 143.301 20.1462C143.776 20.6079 144.208 21.1152 144.718 21.5347C145.142 21.8671 145.588 22.1681 146.055 22.4352C148.814 24.1061 151.573 25.7767 154.332 27.447C155.266 28.0127 156.201 28.5784 157.115 29.1771C158.502 30.087 159.839 31.0729 161.176 32.058C161.964 32.6381 162.751 33.2185 163.538 33.7991C163.797 33.9666 164.023 34.1796 164.208 34.4282C164.371 34.7105 164.472 35.0251 164.505 35.3508C164.702 36.6664 164.591 38.0109 164.18 39.2743V39.2743Z" fill="#FBBEBE"/>
<path d="M140.078 29.5762C139.747 31.0856 138.246 31.998 137.462 33.3239C136.487 34.9694 136.884 36.8821 137.25 38.767C136.582 39.353 135.913 39.939 135.243 40.525C134.874 40.8471 134.505 41.171 134.107 41.4559C133.527 41.8508 132.922 42.2046 132.294 42.5146C131.702 42.8241 131.109 43.1339 130.517 43.4439C129.967 43.7586 129.383 44.0099 128.778 44.1931C127.611 44.4975 126.372 44.2844 125.217 43.9318C125.081 43.8955 124.95 43.8412 124.828 43.7703C124.756 43.7267 124.693 43.6689 124.643 43.6004C124.529 43.3929 124.488 43.1524 124.526 42.918C124.643 40.9427 125.118 39.0088 125.592 37.0893C125.845 35.9378 126.185 34.8078 126.609 33.7095C127.025 32.7684 127.503 31.857 128.04 30.9816C128.633 29.8802 129.335 28.8434 130.136 27.8876C130.526 27.5197 130.854 27.0896 131.108 26.6141C131.403 25.9292 131.289 25.1436 131.349 24.3978C131.395 23.8375 131.541 23.2904 131.781 22.7836V22.7828C131.909 22.5098 132.063 22.2503 132.241 22.0082C132.322 22.1993 132.403 22.3901 132.484 22.5807C132.537 22.7058 132.589 22.8307 132.642 22.9553C132.71 23.1159 132.777 23.276 132.845 23.4356C133.038 23.8939 133.232 24.3519 133.425 24.8096C133.634 25.3862 133.932 25.9254 134.307 26.407C134.478 26.6536 134.71 26.8508 134.979 26.9793C135.248 27.1078 135.545 27.1632 135.841 27.1401C136.137 27.117 136.422 27.0162 136.669 26.8475C136.915 26.6789 137.115 26.4481 137.247 26.1778C137.527 25.6732 137.729 25.1284 137.848 24.5619C138.012 23.8722 138.035 23.1554 137.914 22.4564C137.714 21.1102 137.151 19.7353 136.741 18.4846C136.575 18.0676 136.478 17.6251 136.456 17.1757C136.457 17.1251 136.462 17.0748 136.471 17.0251C136.474 17.0125 136.476 16.9989 136.479 16.9862C136.649 16.9046 136.826 16.8387 137.008 16.7892C137.111 16.7613 137.215 16.7385 137.32 16.7207C137.68 18.7028 138.041 20.6849 138.402 22.6669C138.411 22.7134 138.42 22.7599 138.428 22.8073C138.48 23.0914 138.532 23.3755 138.59 23.6588C138.643 23.9159 138.699 24.1721 138.763 24.4266L138.765 24.4342C138.787 24.5205 138.809 24.6059 138.832 24.6913L138.833 24.6938C138.897 24.9272 138.969 25.1589 139.05 25.3872C139.539 26.763 140.391 28.148 140.078 29.5762Z" fill="#6C63FF"/>
<path d="M159.994 50.7878C159.978 51.0786 160.034 51.3688 160.155 51.6325C160.462 52.2032 161.199 52.3329 161.837 52.3863C165.562 52.6976 169.31 52.5815 173.009 52.0402C173.21 52.0263 173.405 51.9648 173.578 51.8608C174.104 51.4859 173.78 50.5722 173.205 50.2797C172.631 49.9872 171.949 50.0577 171.319 49.931C170.693 49.7708 170.097 49.508 169.554 49.1528C168.276 48.4063 167.016 47.628 165.776 46.818C165.037 46.3357 164.165 45.8211 163.333 46.107C161.08 46.882 159.979 48.3165 159.994 50.7878Z" fill="#3F3D56"/>
<path d="M132.533 22.3016V22.3025C132.528 22.338 132.522 22.3726 132.514 22.4073C132.505 22.4648 132.494 22.5232 132.484 22.5807C132.38 23.1176 132.254 23.652 132.108 24.183C131.709 25.6501 131.174 27.0936 130.644 28.5159C129.22 32.3295 127.795 36.1434 126.371 39.9575C126.012 40.9181 125.653 41.8796 125.245 42.8207C125.108 43.1344 124.968 43.4507 124.828 43.7703C124.327 44.9144 123.846 46.0957 123.687 47.3133C123.538 48.1147 123.521 48.9356 123.636 49.7427C123.796 50.541 124.272 51.3206 125.018 51.6157C125.383 51.7603 125.904 51.9539 125.804 52.3387C125.75 52.5501 125.514 52.6532 125.302 52.6888C125.022 52.7341 124.736 52.7163 124.463 52.6365C124.19 52.5567 123.938 52.417 123.725 52.2271C123.327 51.8677 123.021 51.3088 122.491 51.2487C122.124 51.2082 121.786 51.4314 121.45 51.5878C120.079 52.2245 118.482 51.7789 117.043 51.3265C117.156 50.7338 117.741 50.3431 118.323 50.2247C118.904 50.1055 119.505 50.1901 120.099 50.174C120.288 50.1843 120.477 50.135 120.638 50.0328C120.783 49.8977 120.884 49.7215 120.929 49.5271C121.311 48.3764 121.596 47.1944 121.779 45.9942C121.97 44.7402 122.05 43.4668 122.323 42.228C122.535 41.2615 122.862 40.3254 123.144 39.3766C123.687 37.4232 124.134 35.4431 124.481 33.444C124.657 32.6134 124.783 31.7727 124.858 30.9266C124.905 30.2248 124.883 29.5196 124.949 28.8203C125.061 27.9105 125.248 27.0118 125.508 26.1338C125.762 25.1758 126.016 24.2183 126.27 23.2614C126.647 21.845 127.051 20.3737 128.006 19.2727C128.338 18.8851 128.744 18.5709 129.2 18.3495C129.656 18.1281 130.152 18.0043 130.657 17.9857C130.846 17.9855 131.035 18.0062 131.22 18.0474C131.251 18.0551 131.282 18.0627 131.312 18.0711C131.514 18.1247 131.707 18.2061 131.887 18.313C132.182 18.1227 132.331 18.1895 132.527 18.4829C132.698 18.7935 132.779 19.1472 132.76 19.5027C132.776 20.441 132.7 21.3786 132.533 22.3016Z" fill="#FBBEBE"/>
<path d="M132.857 23.4229L132.845 23.4356L132.777 23.5041L132.108 24.1831L131.781 22.7836L130.657 17.9857C130.846 17.9855 131.035 18.0062 131.22 18.0474C131.228 17.9925 131.241 17.9384 131.259 17.8859L131.312 18.0711L131.693 19.3886L132.415 21.8898L132.533 22.3016V22.3025L132.857 23.4229Z" fill="#6C63FF"/>
<path d="M137.101 8.11638C137.1 8.56064 137.013 9.00044 136.846 9.41063C136.678 9.82082 136.432 10.1934 136.122 10.507C136.01 10.6211 135.89 10.7267 135.763 10.8231C135.189 11.263 134.49 11.501 133.771 11.5014H129.781C128.899 11.5 128.054 11.1429 127.431 10.5086C126.808 9.87423 126.458 9.01445 126.458 8.11803C126.458 7.22161 126.808 6.36184 127.431 5.72748C128.054 5.09313 128.899 4.73606 129.781 4.73468H133.771C134.653 4.73701 135.498 5.09394 136.122 5.72754C136.746 6.36113 137.097 7.21992 137.101 8.11638V8.11638Z" fill="#2F2E41"/>
<path d="M140.842 8.37134C142.725 8.37134 144.252 6.81915 144.252 4.90442C144.252 2.98969 142.725 1.43749 140.842 1.43749C138.959 1.43749 137.432 2.98969 137.432 4.90442C137.432 6.81915 138.959 8.37134 140.842 8.37134Z" fill="#2F2E41"/>
<path opacity="0.1" d="M140.759 1.4375C140.717 1.4375 140.675 1.43919 140.634 1.44071C141.516 1.47331 142.352 1.85251 142.964 2.49852C143.577 3.14453 143.919 4.00699 143.919 4.90443C143.919 5.80187 143.577 6.66432 142.964 7.31033C142.352 7.95634 141.516 8.33554 140.634 8.36814C140.675 8.36966 140.717 8.37135 140.759 8.37135C141.663 8.37135 142.531 8.00608 143.17 7.35591C143.81 6.70573 144.169 5.82391 144.169 4.90443C144.169 3.98494 143.81 3.10311 143.17 2.45294C142.531 1.80277 141.663 1.4375 140.759 1.4375V1.4375Z" fill="black"/>
<path opacity="0.1" d="M124.539 1.4375C124.581 1.4375 124.623 1.43919 124.664 1.44071C123.782 1.47331 122.947 1.85251 122.334 2.49852C121.721 3.14453 121.379 4.00699 121.379 4.90443C121.379 5.80187 121.721 6.66432 122.334 7.31033C122.947 7.95634 123.782 8.33554 124.664 8.36814C124.623 8.36966 124.581 8.37135 124.539 8.37135C123.635 8.37054 122.769 8.00492 122.13 7.35483C121.491 6.70474 121.132 5.82338 121.132 4.90443C121.132 3.98547 121.491 3.1041 122.13 2.45402C122.769 1.80393 123.635 1.43831 124.539 1.4375Z" fill="black"/>
<path opacity="0.1" d="M135.763 10.8231C135.189 11.263 134.49 11.501 133.771 11.5014H129.781C129.062 11.501 128.363 11.263 127.789 10.8231H135.763Z" fill="black"/>
<path d="M161.532 35.9441C161.532 35.9441 162.391 38.4626 163.178 37.792L162.551 34.5001L161.532 35.9441Z" fill="#FBBEBE"/>
<path d="M266.15 112.745C266.951 113.041 267.808 113.144 268.655 113.046C269.501 112.947 270.314 112.65 271.028 112.178C271.742 111.706 272.339 111.072 272.771 110.325C273.203 109.579 273.459 108.74 273.518 107.876C273.577 107.012 273.438 106.146 273.111 105.346C272.785 104.546 272.28 103.834 271.637 103.266C270.993 102.698 270.229 102.29 269.404 102.073C268.579 101.857 267.716 101.838 266.883 102.019L267.02 104.898L265.681 102.431C264.366 103.059 263.35 104.192 262.856 105.581C262.681 106.067 262.575 106.577 262.54 107.094C262.455 108.307 262.762 109.515 263.414 110.534C264.065 111.554 265.026 112.33 266.15 112.745V112.745Z" fill="#57B894"/>
<path d="M272.779 146.133C272.306 143.685 274.355 141.515 276.379 140.104C278.403 138.693 280.769 137.307 281.459 134.913C282.452 131.472 279.495 128.321 277.194 125.604C275.487 123.587 274.021 121.372 272.826 119.004C272.347 118.055 271.907 117.063 271.781 116.004C271.6 114.478 272.082 112.961 272.568 111.506C274.185 106.66 275.915 101.854 277.756 97.0886" stroke="#3F3D56" stroke-miterlimit="10"/>
<path d="M266.376 112.004C267.177 112.3 268.035 112.403 268.881 112.305C269.728 112.206 270.54 111.909 271.254 111.437C271.969 110.965 272.566 110.331 272.998 109.584C273.43 108.838 273.685 107.999 273.744 107.135C273.803 106.271 273.664 105.405 273.338 104.605C273.011 103.805 272.506 103.093 271.863 102.525C271.22 101.957 270.456 101.549 269.631 101.332C268.806 101.116 267.942 101.097 267.109 101.278L267.247 104.156L265.907 101.689C264.592 102.317 263.577 103.451 263.083 104.84C262.908 105.326 262.801 105.836 262.767 106.353C262.682 107.565 262.989 108.773 263.64 109.793C264.291 110.813 265.252 111.589 266.376 112.004V112.004Z" stroke="#3F3D56" stroke-miterlimit="10"/>
<path d="M272.106 96.0944C272.421 95.2129 272.948 94.426 273.64 93.8062C274.332 93.1864 275.166 92.7537 276.066 92.5478L276.519 95.2845L277.359 92.4103C278.525 92.4278 279.655 92.8217 280.587 93.5349C281.518 94.2482 282.203 95.2439 282.541 96.3784C282.88 97.5128 282.855 98.7274 282.47 99.8465C282.086 100.966 281.361 101.932 280.401 102.605C279.441 103.278 278.296 103.624 277.13 103.592C275.964 103.56 274.839 103.153 273.916 102.428C272.993 101.704 272.32 100.7 271.995 99.5615C271.669 98.423 271.709 97.2088 272.106 96.0944H272.106Z" fill="#57B894"/>
<path d="M272.408 95.1062C272.723 94.2248 273.25 93.4379 273.942 92.8181C274.634 92.1983 275.468 91.7655 276.368 91.5596L276.821 94.2963L277.661 91.4221C278.827 91.4397 279.957 91.8335 280.889 92.5467C281.82 93.26 282.505 94.2557 282.843 95.3902C283.182 96.5247 283.157 97.7392 282.772 98.8583C282.388 99.9775 281.663 100.943 280.703 101.617C279.743 102.29 278.598 102.636 277.432 102.604C276.266 102.572 275.141 102.165 274.218 101.44C273.295 100.716 272.622 99.7118 272.297 98.5733C271.972 97.4348 272.011 96.2207 272.408 95.1062H272.408Z" stroke="#3F3D56" stroke-miterlimit="10"/>
<path d="M276.228 125.659C277.498 126.127 278.893 126.104 280.147 125.594C281.402 125.084 282.427 124.122 283.029 122.893C283.631 121.663 283.766 120.252 283.41 118.927C283.054 117.602 282.23 116.457 281.097 115.71L280.452 117.919L279.994 115.15C279.99 115.148 279.985 115.146 279.98 115.144C279.301 114.893 278.58 114.781 277.858 114.813C277.136 114.846 276.427 115.023 275.772 115.334C275.118 115.645 274.53 116.084 274.042 116.626C273.554 117.168 273.176 117.803 272.93 118.493C272.683 119.184 272.573 119.917 272.606 120.651C272.638 121.385 272.812 122.106 273.119 122.771C273.425 123.436 273.857 124.034 274.391 124.53C274.924 125.025 275.549 125.409 276.228 125.659H276.228Z" fill="#57B894"/>
<path d="M276.49 124.658C277.76 125.126 279.155 125.103 280.409 124.593C281.663 124.083 282.689 123.122 283.291 121.892C283.892 120.662 284.028 119.251 283.672 117.926C283.316 116.601 282.492 115.456 281.359 114.709L280.714 116.918L280.256 114.149C280.251 114.147 280.247 114.145 280.242 114.143C279.563 113.892 278.841 113.78 278.119 113.813C277.398 113.845 276.689 114.022 276.034 114.333C275.379 114.644 274.791 115.083 274.304 115.625C273.816 116.167 273.438 116.802 273.191 117.492C272.945 118.183 272.835 118.916 272.867 119.65C272.9 120.384 273.074 121.105 273.38 121.77C273.687 122.436 274.119 123.033 274.652 123.529C275.186 124.024 275.81 124.408 276.49 124.658H276.49Z" stroke="#3F3D56" stroke-miterlimit="10"/>
<path d="M270.501 134.947C270.719 136.21 271.358 137.358 272.31 138.199C273.263 139.04 274.471 139.523 275.731 139.566C276.992 139.609 278.229 139.211 279.235 138.437C280.241 137.663 280.954 136.56 281.256 135.315C281.557 134.07 281.428 132.757 280.891 131.597C280.353 130.437 279.439 129.5 278.303 128.943C277.166 128.387 275.876 128.244 274.649 128.54C273.421 128.836 272.331 129.552 271.561 130.567L274.012 134.318L270.663 132.327C270.403 133.175 270.348 134.073 270.501 134.947V134.947Z" fill="#57B894"/>
<path d="M270.727 134.206C270.946 135.469 271.585 136.617 272.537 137.458C273.489 138.299 274.697 138.782 275.958 138.825C277.219 138.868 278.456 138.469 279.462 137.695C280.467 136.921 281.181 135.819 281.482 134.574C281.784 133.329 281.655 132.016 281.117 130.856C280.579 129.696 279.666 128.759 278.529 128.202C277.393 127.646 276.103 127.503 274.875 127.799C273.648 128.095 272.558 128.81 271.788 129.826L274.239 133.577L270.89 131.586C270.63 132.434 270.574 133.332 270.727 134.206V134.206Z" stroke="#3F3D56" stroke-miterlimit="10"/>
<path d="M2.381 126.37C2.9071 126.564 3.47044 126.632 4.02661 126.567C4.58278 126.502 5.11658 126.307 5.58593 125.997C6.05528 125.687 6.44735 125.27 6.73125 124.78C7.01514 124.289 7.1831 123.738 7.22188 123.171C7.26065 122.603 7.16919 122.034 6.9547 121.508C6.74021 120.982 6.40856 120.515 5.98588 120.141C5.5632 119.768 5.06104 119.5 4.519 119.358C3.97696 119.216 3.40984 119.204 2.86235 119.322L2.95282 121.214L2.07262 119.593C1.20875 120.005 0.541377 120.75 0.217155 121.662C0.10201 121.982 0.03201 122.317 0.00924409 122.656C-0.0463147 123.453 0.155164 124.247 0.583148 124.917C1.01113 125.587 1.6423 126.097 2.381 126.37V126.37Z" fill="#57B894"/>
<path d="M6.73626 148.306C6.42555 146.698 7.77193 145.272 9.10184 144.345C10.4318 143.418 11.9857 142.507 12.4395 140.934C13.0916 138.673 11.1491 136.603 9.63712 134.818C8.51541 133.493 7.55212 132.037 6.76742 130.482C6.42626 129.871 6.1939 129.203 6.08102 128.51C5.96181 127.508 6.27848 126.511 6.59751 125.555C7.6603 122.371 8.79661 119.214 10.0064 116.083" stroke="#3F3D56" stroke-miterlimit="10"/>
<path d="M2.53011 125.883C3.05621 126.077 3.61955 126.145 4.17572 126.08C4.73189 126.015 5.26568 125.82 5.73503 125.51C6.20438 125.2 6.59646 124.783 6.88035 124.293C7.16425 123.802 7.3322 123.251 7.37098 122.684C7.40975 122.116 7.31829 121.547 7.10381 121.021C6.88932 120.496 6.55766 120.028 6.13498 119.655C5.7123 119.281 5.21015 119.013 4.66811 118.871C4.12607 118.729 3.55895 118.717 3.01146 118.835L3.10194 120.727L2.22173 119.106C1.35786 119.518 0.690486 120.263 0.366264 121.175C0.25112 121.495 0.181121 121.83 0.158354 122.169C0.102792 122.966 0.304269 123.76 0.732254 124.43C1.16024 125.1 1.7914 125.61 2.53011 125.883V125.883Z" stroke="#3F3D56" stroke-miterlimit="10"/>
<path d="M6.29447 115.43C6.50093 114.851 6.84746 114.334 7.30212 113.926C7.75677 113.519 8.30493 113.235 8.89609 113.1L9.19369 114.898L9.74546 113.009C10.5115 113.021 11.2542 113.279 11.8662 113.748C12.4782 114.217 12.9279 114.871 13.1503 115.616C13.3728 116.362 13.3564 117.16 13.1037 117.895C12.851 118.63 12.3749 119.265 11.7443 119.707C11.1137 120.15 10.3611 120.377 9.59515 120.356C8.82925 120.335 8.08968 120.067 7.48322 119.591C6.87675 119.115 6.43478 118.456 6.22111 117.708C6.00744 116.96 6.03313 116.162 6.29447 115.43V115.43Z" fill="#57B894"/>
<path d="M6.49296 114.78C6.69942 114.201 7.04595 113.684 7.5006 113.277C7.95526 112.87 8.50342 112.586 9.09457 112.45L9.39218 114.248L9.94395 112.36C10.71 112.371 11.4527 112.63 12.0647 113.099C12.6767 113.567 13.1264 114.222 13.3488 114.967C13.5713 115.712 13.5549 116.51 13.3022 117.246C13.0495 117.981 12.5734 118.616 11.9428 119.058C11.3121 119.5 10.5595 119.727 9.79364 119.707C9.02773 119.686 8.28816 119.418 7.6817 118.942C7.07524 118.466 6.63327 117.806 6.4196 117.058C6.20593 116.31 6.23162 115.513 6.49296 114.78V114.78Z" stroke="#3F3D56" stroke-miterlimit="10"/>
<path d="M9.00261 134.854C9.83696 135.162 10.7535 135.147 11.5775 134.811C12.4016 134.476 13.0755 133.845 13.4708 133.037C13.8662 132.229 13.9553 131.301 13.7212 130.431C13.4871 129.561 12.9462 128.808 12.2015 128.317L11.7775 129.769L11.4769 127.949C11.4739 127.948 11.4708 127.947 11.4677 127.946C11.0214 127.781 10.5475 127.707 10.0731 127.728C9.59869 127.749 9.13305 127.866 8.7028 128.07C8.27255 128.274 7.88613 128.563 7.56561 128.919C7.24509 129.275 6.99677 129.692 6.83483 130.146C6.67289 130.6 6.60051 131.082 6.62182 131.564C6.64313 132.046 6.75772 132.52 6.95904 132.957C7.16036 133.394 7.44446 133.787 7.79511 134.112C8.14575 134.438 8.55607 134.69 9.00261 134.854V134.854Z" fill="#57B894"/>
<path d="M9.1746 134.197C10.0089 134.504 10.9255 134.489 11.7495 134.154C12.5736 133.819 13.2475 133.187 13.6428 132.379C14.0382 131.571 14.1273 130.644 13.8932 129.773C13.6591 128.903 13.1182 128.151 12.3735 127.66L11.9495 129.111L11.6489 127.292C11.6459 127.29 11.6428 127.289 11.6397 127.288C11.1935 127.124 10.7198 127.05 10.2456 127.072C9.77145 127.093 9.30611 127.209 8.87615 127.414C8.00782 127.827 7.33634 128.573 7.00945 129.489C6.68256 130.405 6.72703 131.416 7.13307 132.299C7.53912 133.182 8.27347 133.864 9.1746 134.197V134.197Z" stroke="#3F3D56" stroke-miterlimit="10"/>
<path d="M5.23965 140.957C5.38311 141.786 5.80289 142.541 6.42858 143.093C7.05428 143.646 7.84783 143.963 8.67617 143.991C9.50451 144.02 10.3173 143.758 10.9781 143.249C11.6389 142.741 12.1077 142.017 12.3057 141.198C12.5038 140.38 12.4191 139.518 12.0658 138.756C11.7126 137.993 11.1123 137.378 10.3656 137.012C9.61893 136.646 8.77127 136.553 7.96479 136.747C7.15832 136.941 6.44207 137.412 5.93618 138.079L7.54659 140.543L5.34616 139.235C5.17555 139.792 5.13902 140.382 5.23965 140.957V140.957Z" fill="#57B894"/>
<path d="M5.38852 140.47C5.53198 141.299 5.95175 142.054 6.57745 142.607C7.20314 143.159 7.9967 143.476 8.82504 143.504C9.65338 143.533 10.4661 143.271 11.127 142.762C11.7878 142.254 12.2565 141.53 12.4546 140.711C12.6526 139.893 12.5679 139.031 12.2147 138.269C11.8615 137.506 11.2612 136.891 10.5145 136.525C9.76779 136.159 8.92013 136.066 8.11366 136.26C7.30718 136.454 6.59094 136.925 6.08504 137.592L7.69546 140.056L5.49503 138.748C5.32441 139.305 5.28789 139.895 5.38852 140.47V140.47Z" stroke="#3F3D56" stroke-miterlimit="10"/>
<path d="M127.131 91.6677C129.613 91.6677 131.625 89.0208 131.625 85.7557C131.625 82.4906 129.613 79.8437 127.131 79.8437C124.649 79.8437 122.637 82.4906 122.637 85.7557C122.637 89.0208 124.649 91.6677 127.131 91.6677Z" fill="#2F2E41"/>
<path d="M151.582 91.8021C154.064 91.8021 156.076 89.1552 156.076 85.8901C156.076 82.6249 154.064 79.978 151.582 79.978C149.1 79.978 147.088 82.6249 147.088 85.8901C147.088 89.1552 149.1 91.8021 151.582 91.8021Z" fill="#2F2E41"/>
<path d="M148.146 103.357C148.146 106.029 144.477 108.195 139.951 108.195C135.426 108.195 131.757 106.029 131.757 103.357C131.757 101.044 134.509 99.1089 138.186 98.6359C138.771 98.5574 139.361 98.5188 139.951 98.5203C140.941 98.5171 141.927 98.6253 142.893 98.8428C145.965 99.5388 148.146 101.299 148.146 103.357Z" fill="#2F2E41"/>
<path d="M128.188 90.3241C130.67 90.3241 132.682 87.6772 132.682 84.412C132.682 81.1469 130.67 78.5 128.188 78.5C125.707 78.5 123.695 81.1469 123.695 84.412C123.695 87.6772 125.707 90.3241 128.188 90.3241Z" stroke="#3F3D56" stroke-miterlimit="10"/>
<path d="M152.64 90.4585C155.121 90.4585 157.133 87.8115 157.133 84.5464C157.133 81.2813 155.121 78.6344 152.64 78.6344C150.158 78.6344 148.146 81.2813 148.146 84.5464C148.146 87.8115 150.158 90.4585 152.64 90.4585Z" stroke="#3F3D56" stroke-miterlimit="10"/>
<path d="M141.009 106.851C145.534 106.851 149.203 104.685 149.203 102.014C149.203 99.3423 145.534 97.1767 141.009 97.1767C136.483 97.1767 132.814 99.3423 132.814 102.014C132.814 104.685 136.483 106.851 141.009 106.851Z" stroke="#3F3D56" stroke-miterlimit="10"/>
<path d="M142.991 99.2459C142.993 99.5838 142.869 99.9099 142.642 100.157C142.535 100.276 142.406 100.371 142.261 100.436C142.116 100.501 141.96 100.535 141.802 100.536H139.158C138.833 100.524 138.525 100.382 138.302 100.14C138.079 99.8987 137.959 99.5771 137.969 99.2459C137.968 98.9839 138.043 98.7274 138.186 98.5092C138.771 98.4256 139.361 98.3844 139.951 98.386C140.942 98.3827 141.929 98.4981 142.893 98.73C142.959 98.8939 142.992 99.0691 142.991 99.2459V99.2459Z" fill="white"/>
<path d="M128.188 84.1433C128.918 84.1433 129.51 83.5417 129.51 82.7997C129.51 82.0576 128.918 81.456 128.188 81.456C127.459 81.456 126.867 82.0576 126.867 82.7997C126.867 83.5417 127.459 84.1433 128.188 84.1433Z" fill="white"/>
<path d="M152.772 84.1433C153.502 84.1433 154.093 83.5417 154.093 82.7997C154.093 82.0576 153.502 81.456 152.772 81.456C152.042 81.456 151.45 82.0576 151.45 82.7997C151.45 83.5417 152.042 84.1433 152.772 84.1433Z" fill="white"/>
<path opacity="0.3" d="M154.093 96.7736C154.823 96.7736 155.415 96.172 155.415 95.43C155.415 94.6879 154.823 94.0863 154.093 94.0863C153.363 94.0863 152.772 94.6879 152.772 95.43C152.772 96.172 153.363 96.7736 154.093 96.7736Z" fill="#6C63FF"/>
<path opacity="0.3" d="M121.844 96.7736C122.574 96.7736 123.166 96.172 123.166 95.43C123.166 94.6879 122.574 94.0863 121.844 94.0863C121.114 94.0863 120.523 94.6879 120.523 95.43C120.523 96.172 121.114 96.7736 121.844 96.7736Z" fill="#6C63FF"/>
</g>
<defs>
<clipPath id="clip0">
<rect width="284" height="157" fill="white"/>
</clipPath>
</defs>
</svg>
