<svg width="221" height="120" viewBox="0 0 221 120" fill="none" xmlns="http://www.w3.org/2000/svg">
<g clip-path="url(#clip0)">
<path d="M126.72 117.434C125.353 117.433 124.041 116.836 123.074 115.775C122.107 114.714 121.564 113.276 121.564 111.776C121.564 110.276 122.107 108.837 123.074 107.776C124.041 106.715 125.353 106.119 126.72 106.118H203.361C202.976 105.342 202.407 104.694 201.714 104.242C201.021 103.791 200.23 103.552 199.425 103.551H47.0833C45.0957 103.554 43.1904 104.421 41.7858 105.964C40.3813 107.506 39.5925 109.596 39.5928 111.776C39.5938 113.955 40.383 116.044 41.7872 117.586C43.1915 119.128 45.0961 119.996 47.0833 120H199.425C200.23 119.999 201.021 119.761 201.714 119.309C202.407 118.858 202.976 118.21 203.361 117.434L126.72 117.434Z" fill="#244DA4"/>
<path d="M203.463 109.235H130.595C130.484 109.235 130.377 109.186 130.298 109.1C130.219 109.013 130.175 108.896 130.175 108.773C130.175 108.651 130.219 108.534 130.298 108.447C130.377 108.361 130.484 108.312 130.595 108.312H203.463C203.574 108.312 203.681 108.361 203.76 108.447C203.839 108.534 203.883 108.651 203.883 108.773C203.883 108.896 203.839 109.013 203.76 109.1C203.681 109.186 203.574 109.235 203.463 109.235Z" fill="white"/>
<path d="M203.463 112.238H130.595C130.484 112.238 130.376 112.189 130.298 112.102C130.219 112.016 130.174 111.898 130.174 111.776C130.174 111.653 130.219 111.536 130.298 111.449C130.376 111.362 130.484 111.314 130.595 111.314H203.463C203.575 111.314 203.682 111.362 203.761 111.449C203.84 111.536 203.884 111.653 203.884 111.776C203.884 111.898 203.84 112.016 203.761 112.102C203.682 112.189 203.575 112.238 203.463 112.238V112.238Z" fill="#CCCCCC"/>
<path d="M203.463 115.24H130.595C130.484 115.24 130.377 115.191 130.298 115.104C130.219 115.018 130.175 114.9 130.175 114.778C130.175 114.656 130.219 114.538 130.298 114.452C130.377 114.365 130.484 114.316 130.595 114.316H203.463C203.574 114.316 203.681 114.365 203.76 114.452C203.839 114.538 203.883 114.656 203.883 114.778C203.883 114.9 203.839 115.018 203.76 115.104C203.681 115.191 203.574 115.24 203.463 115.24Z" fill="#CCCCCC"/>
<path d="M106.924 101.499C105.556 101.498 104.245 100.901 103.278 99.8401C102.311 98.7791 101.768 97.3405 101.768 95.8406C101.768 94.3406 102.311 92.9021 103.278 91.8411C104.245 90.7801 105.556 90.1835 106.924 90.1825H183.565C183.179 89.4065 182.61 88.7587 181.918 88.3071C181.225 87.8556 180.434 87.6169 179.628 87.6163H27.2869C25.2994 87.6187 23.394 88.4863 21.9895 90.0284C20.5849 91.5706 19.7961 93.661 19.7963 95.8406C19.7973 98.0197 20.5866 100.109 21.9908 101.651C23.3951 103.193 25.2998 104.061 27.2869 104.065H179.628C180.434 104.064 181.225 103.826 181.918 103.374C182.61 102.922 183.179 102.275 183.565 101.499L106.924 101.499Z" fill="#244DA4"/>
<path d="M183.666 93.3002H110.799C110.687 93.2999 110.581 93.2511 110.502 93.1646C110.423 93.078 110.379 92.9607 110.379 92.8383C110.379 92.716 110.423 92.5987 110.502 92.5121C110.581 92.4255 110.687 92.3768 110.799 92.3765H183.666C183.778 92.3765 183.885 92.4251 183.964 92.5117C184.043 92.5984 184.088 92.7158 184.088 92.8383C184.088 92.9608 184.043 93.0783 183.964 93.1649C183.885 93.2516 183.778 93.3002 183.666 93.3002V93.3002Z" fill="white"/>
<path d="M183.666 96.3025H110.799C110.687 96.3025 110.58 96.2538 110.501 96.1672C110.422 96.0806 110.378 95.9631 110.378 95.8406C110.378 95.7181 110.422 95.6006 110.501 95.514C110.58 95.4274 110.687 95.3787 110.799 95.3787H183.666C183.778 95.3787 183.885 95.4274 183.964 95.514C184.043 95.6006 184.088 95.7181 184.088 95.8406C184.088 95.9631 184.043 96.0806 183.964 96.1672C183.885 96.2538 183.778 96.3025 183.666 96.3025V96.3025Z" fill="white"/>
<path d="M183.666 99.3047H110.799C110.687 99.3044 110.581 99.2557 110.502 99.1691C110.423 99.0825 110.379 98.9652 110.379 98.8428C110.379 98.7205 110.423 98.6032 110.502 98.5166C110.581 98.4301 110.687 98.3813 110.799 98.381H183.666C183.722 98.3808 183.777 98.3927 183.828 98.4158C183.879 98.439 183.926 98.473 183.965 98.5159C184.004 98.5588 184.035 98.6097 184.056 98.6658C184.078 98.722 184.089 98.7821 184.089 98.8428C184.089 98.9036 184.078 98.9638 184.056 99.0199C184.035 99.076 184.004 99.1269 183.965 99.1698C183.926 99.2128 183.879 99.2467 183.828 99.2699C183.777 99.293 183.722 99.3049 183.666 99.3047V99.3047Z" fill="#CCCCCC"/>
<path d="M87.1276 85.0319C85.7598 85.0309 84.4483 84.4343 83.4814 83.3733C82.5145 82.3123 81.9714 80.8738 81.9714 79.3738C81.9714 77.8739 82.5145 76.4353 83.4814 75.3743C84.4483 74.3133 85.7598 73.7167 87.1276 73.7157H163.768C163.383 72.9397 162.814 72.2919 162.121 71.8404C161.429 71.3888 160.638 71.1501 159.832 71.1495H7.49048C5.50294 71.1519 3.59759 72.0195 2.19307 73.5616C0.788544 75.1038 -0.000254918 77.1942 -7.57124e-06 79.3738C0.000997985 81.5529 0.790198 83.6426 2.19445 85.1844C3.5987 86.7262 5.50333 87.5943 7.49048 87.5981H159.832C160.638 87.5974 161.429 87.3588 162.121 86.9072C162.814 86.4557 163.383 85.8079 163.768 85.0319L87.1276 85.0319Z" fill="white"/>
<path d="M163.87 76.8334H91.0026C90.8911 76.8331 90.7842 76.7844 90.7054 76.6978C90.6266 76.6112 90.5824 76.4939 90.5824 76.3716C90.5824 76.2493 90.6266 76.1319 90.7054 76.0453C90.7842 75.9588 90.8911 75.91 91.0026 75.9097H163.87C163.982 75.9097 164.089 75.9583 164.168 76.045C164.247 76.1316 164.291 76.2491 164.291 76.3716C164.291 76.4941 164.247 76.6115 164.168 76.6982C164.089 76.7848 163.982 76.8334 163.87 76.8334Z" fill="#244DA4"/>
<path d="M163.87 79.8357H91.0026C90.9473 79.8357 90.8925 79.8238 90.8414 79.8005C90.7903 79.7773 90.7439 79.7433 90.7048 79.7004C90.6656 79.6575 90.6346 79.6066 90.6135 79.5506C90.5923 79.4945 90.5814 79.4345 90.5814 79.3738C90.5814 79.3132 90.5923 79.2531 90.6135 79.1971C90.6346 79.141 90.6656 79.0901 90.7048 79.0472C90.7439 79.0043 90.7903 78.9703 90.8414 78.9471C90.8925 78.9239 90.9473 78.9119 91.0026 78.9119H163.87C163.925 78.9119 163.98 78.9239 164.031 78.9471C164.082 78.9703 164.129 79.0043 164.168 79.0472C164.207 79.0901 164.238 79.141 164.259 79.1971C164.28 79.2531 164.291 79.3132 164.291 79.3738C164.291 79.4345 164.28 79.4945 164.259 79.5506C164.238 79.6066 164.207 79.6575 164.168 79.7004C164.129 79.7433 164.082 79.7773 164.031 79.8005C163.98 79.8238 163.925 79.8357 163.87 79.8357V79.8357Z" fill="#CCCCCC"/>
<path d="M163.87 82.838H91.0026C90.8909 82.838 90.7837 82.7893 90.7048 82.7027C90.6258 82.616 90.5814 82.4986 90.5814 82.3761C90.5814 82.2536 90.6258 82.1361 90.7048 82.0495C90.7837 81.9628 90.8909 81.9142 91.0026 81.9142H163.87C163.925 81.9142 163.98 81.9261 164.031 81.9493C164.082 81.9725 164.129 82.0066 164.168 82.0495C164.207 82.0924 164.238 82.1433 164.259 82.1993C164.28 82.2554 164.291 82.3154 164.291 82.3761C164.291 82.4367 164.28 82.4968 164.259 82.5528C164.238 82.6089 164.207 82.6598 164.168 82.7027C164.129 82.7456 164.082 82.7796 164.031 82.8028C163.98 82.826 163.925 82.838 163.87 82.838V82.838Z" fill="#CCCCCC"/>
<path d="M165.553 49.9035C165.153 49.9028 164.769 49.7357 164.477 49.4358C164.186 49.1359 164.009 48.7258 163.983 48.2884L163.749 44.373C163.722 43.9157 163.861 43.4652 164.137 43.1206C164.412 42.7761 164.801 42.5657 165.218 42.5357L193.192 40.5268C193.633 40.4951 194.075 40.559 194.493 40.7148C194.912 40.8706 195.298 41.1152 195.63 41.4347C195.963 41.7543 196.234 42.1424 196.43 42.577C196.625 43.0116 196.741 43.4842 196.769 43.9677C196.798 44.4513 196.74 44.9363 196.598 45.3952C196.456 45.854 196.233 46.2777 195.941 46.642C195.65 47.0063 195.296 47.3041 194.9 47.5184C194.503 47.7327 194.072 47.8593 193.632 47.891L165.658 49.8998C165.623 49.9022 165.588 49.9035 165.553 49.9035Z" fill="white"/>
<path d="M171.069 50.4083C170.661 50.4076 170.27 50.234 169.976 49.9239C169.683 49.6138 169.51 49.1912 169.495 48.7447L169.295 42.8966C169.288 42.6698 169.321 42.4436 169.393 42.2308C169.465 42.0181 169.574 41.823 169.715 41.6566C169.856 41.4903 170.025 41.356 170.213 41.2614C170.401 41.1668 170.604 41.1138 170.811 41.1053L193.815 40.1625C194.232 40.1454 194.639 40.311 194.945 40.6227C195.252 40.9344 195.432 41.3669 195.448 41.8249L195.647 47.673C195.655 47.8998 195.622 48.126 195.55 48.3387C195.478 48.5515 195.369 48.7466 195.228 48.9129C195.087 49.0793 194.918 49.2136 194.73 49.3081C194.542 49.4027 194.338 49.4558 194.132 49.4642L171.128 50.407C171.108 50.4079 171.088 50.4083 171.069 50.4083Z" fill="#2F2E41"/>
<path d="M198.025 104.317H194.447C194.029 104.317 193.628 104.135 193.333 103.811C193.038 103.487 192.871 103.047 192.871 102.589V69.8862C192.871 69.428 193.038 68.9888 193.333 68.6648C193.628 68.3409 194.029 68.1587 194.447 68.1581H198.025C198.443 68.1587 198.843 68.3409 199.139 68.6648C199.434 68.9888 199.6 69.428 199.601 69.8862V102.589C199.6 103.047 199.434 103.487 199.139 103.811C198.843 104.135 198.443 104.317 198.025 104.317V104.317Z" fill="#2F2E41"/>
<path d="M192.59 34.0289C199.419 34.0289 204.954 27.9586 204.954 20.4706C204.954 12.9825 199.419 6.91226 192.59 6.91226C185.762 6.91226 180.226 12.9825 180.226 20.4706C180.226 27.9586 185.762 34.0289 192.59 34.0289Z" fill="#FEFEFF"/>
<path d="M185.898 25.0998C185.5 24.9565 185.135 24.7215 184.827 24.4106C184.623 24.1886 184.466 23.9203 184.366 23.6246C184.267 23.3289 184.227 23.0129 184.251 22.6988C184.264 22.4749 184.324 22.2574 184.426 22.0632C184.528 21.869 184.67 21.7034 184.84 21.5793C185.283 21.2682 185.874 21.2673 186.476 21.5583L186.453 16.2653L186.938 16.2628L186.965 22.4852L186.591 22.2275C186.158 21.9292 185.539 21.7192 185.102 22.0268C184.994 22.1081 184.905 22.2156 184.841 22.3409C184.777 22.4663 184.74 22.6062 184.733 22.7496C184.717 22.9836 184.747 23.2188 184.821 23.439C184.895 23.6593 185.011 23.8594 185.162 24.026C185.697 24.5868 186.478 24.7622 187.369 24.9189L187.292 25.4438C186.819 25.3751 186.352 25.2599 185.898 25.0998V25.0998Z" fill="#2F2E41"/>
<path d="M181.455 15.9979L181.392 16.5249L183.98 16.8999L184.044 16.3728L181.455 15.9979Z" fill="#2F2E41"/>
<path d="M189.627 17.181L189.563 17.7081L192.152 18.083L192.216 17.556L189.627 17.181Z" fill="#2F2E41"/>
<path d="M202.914 78.6605H182.065C181.519 78.6598 180.995 78.4216 180.609 77.9979C180.223 77.5743 180.005 76.9999 180.005 76.4008L184.369 39.6965C184.373 39.1001 184.591 38.5295 184.977 38.1093C185.363 37.6891 185.885 37.4535 186.429 37.4539H193.828C196.783 37.4576 199.617 38.7466 201.706 41.0382C203.796 43.3298 204.972 46.4368 204.975 49.6777V76.4008C204.974 76.9999 204.757 77.5743 204.371 77.9979C203.984 78.4216 203.461 78.6598 202.914 78.6605Z" fill="#2F2E41"/>
<path d="M220.852 64.1975C220.981 64.4998 221.027 64.8364 220.985 65.1669C220.944 65.4974 220.816 65.8076 220.617 66.0603L218.278 69.0294C218.143 69.2012 217.978 69.342 217.793 69.4439C217.608 69.5457 217.407 69.6067 217.2 69.6232C216.994 69.6397 216.787 69.6115 216.59 69.5401C216.394 69.4687 216.212 69.3556 216.055 69.2073L194.843 49.1099C194.508 48.7931 194.234 48.4072 194.035 47.9742C193.837 47.5412 193.718 47.0696 193.686 46.5862C193.654 46.1029 193.709 45.6173 193.848 45.1573C193.987 44.6972 194.207 44.2717 194.496 43.905C194.785 43.5382 195.137 43.2375 195.531 43.02C195.926 42.8025 196.356 42.6724 196.797 42.6371C197.238 42.6019 197.681 42.6623 198.1 42.8147C198.52 42.9672 198.908 43.2087 199.242 43.5257L220.455 63.6229C220.623 63.7816 220.758 63.9774 220.852 64.1975V64.1975Z" fill="#FAFAFF"/>
<path d="M216.17 57.5652C216.299 57.8675 216.345 58.2041 216.303 58.5346C216.262 58.865 216.134 59.1753 215.935 59.4279L211.94 64.4995C211.666 64.8458 211.279 65.059 210.862 65.0923C210.445 65.1257 210.034 64.9764 209.717 64.6773L192.298 48.1744C192.142 48.0261 192.013 47.8453 191.92 47.6426C191.828 47.4398 191.772 47.2189 191.757 46.9926C191.742 46.7663 191.768 46.5389 191.833 46.3235C191.898 46.1081 192.001 45.9088 192.136 45.7371L196.132 40.6656C196.267 40.4939 196.432 40.3531 196.617 40.2512C196.802 40.1493 197.003 40.0884 197.209 40.0719C197.416 40.0554 197.623 40.0836 197.82 40.155C198.016 40.2263 198.198 40.3394 198.354 40.4878L215.773 56.9906C215.941 57.1493 216.076 57.3451 216.17 57.5652V57.5652Z" fill="#2F2E41"/>
<path d="M192.822 12.4291C191.169 10.9293 188.959 12.3478 187.09 12.1465C185.302 11.9539 183.863 10.2281 183.471 8.37108C183.013 6.20452 184.005 4.00372 185.499 2.61583C187.135 1.09575 189.332 0.623381 191.426 0.854688C193.826 1.11979 196.037 2.298 198.027 3.73736C199.947 5.08244 201.719 6.66667 203.308 8.45846C204.731 10.1177 205.947 12.1055 206.363 14.3694C206.742 16.4269 206.52 18.7202 205.437 20.4924C204.863 21.4012 204.084 22.1322 203.177 22.6149C202.231 23.1487 201.22 23.5373 200.305 24.1376C198.922 25.0453 197.595 26.8953 198.066 28.7819C198.167 29.1941 198.359 29.5727 198.625 29.8844C198.944 30.2587 199.5 29.7437 199.179 29.3684C198.617 28.7092 198.623 27.8144 198.903 27.0076C199.236 26.0981 199.842 25.3398 200.619 24.8568C201.577 24.2299 202.639 23.8331 203.621 23.2597C204.562 22.735 205.373 21.9688 205.986 21.0264C207.142 19.1923 207.456 16.8302 207.149 14.6575C206.817 12.3064 205.675 10.1874 204.26 8.42119C202.719 6.4991 200.84 4.88407 198.923 3.43796C196.867 1.88626 194.602 0.585361 192.113 0.149634C189.956 -0.228073 187.63 0.0805991 185.772 1.40461C184.038 2.64049 182.728 4.73159 182.634 7.03965C182.604 8.08955 182.83 9.12921 183.288 10.0516C183.746 10.9741 184.42 11.746 185.241 12.2879C186.083 12.8165 187.054 13.0421 188.019 12.9328C189.051 12.8388 190.078 12.4704 191.12 12.5451C191.591 12.5666 192.042 12.7558 192.406 13.0842C192.768 13.4119 193.18 12.7541 192.822 12.4291V12.4291Z" fill="#2F2E41"/>
<path d="M178.283 83.0959C178.288 83.0659 178.293 83.0359 178.299 83.006C178.342 82.784 178.425 82.5735 178.543 82.3868C178.66 82.2001 178.811 82.0409 178.985 81.9184L181.992 79.7916C182.343 79.5437 182.77 79.4588 183.178 79.5554C183.587 79.6521 183.943 79.9224 184.17 80.3071L193.446 96.0772C193.672 96.4623 193.75 96.9303 193.662 97.3783C193.574 97.8263 193.327 98.2175 192.976 98.466L189.969 100.593C189.618 100.841 189.191 100.926 188.782 100.829C188.374 100.732 188.017 100.462 187.79 100.077L178.515 84.3072C178.303 83.9491 178.22 83.5172 178.283 83.0959V83.0959Z" fill="#2F2E41"/>
</g>
<defs>
<clipPath id="clip0">
<rect width="221" height="120" fill="white"/>
</clipPath>
</defs>
</svg>
