<svg width="103" height="94" viewBox="0 0 103 94" fill="none" xmlns="http://www.w3.org/2000/svg">
<path d="M99.9138 57.3047L90.4465 50.5485C90.571 49.5066 90.6696 48.2886 90.6696 47C90.6696 45.7114 90.5666 44.4934 90.4465 43.4515L99.9225 36.6914C101.682 35.4224 102.167 33.1702 101.043 31.2943L91.1974 15.749C90.1202 13.9592 87.7041 13.1405 85.5025 13.8808L74.3312 17.9736C72.1939 16.5636 69.9495 15.373 67.6275 14.4213L65.928 3.60743C65.6492 1.551 63.6922 0 61.3789 0H41.6373C39.3241 0 37.3671 1.551 37.0925 3.56814L35.3887 14.4213C33.1398 15.3495 30.9298 16.5207 28.6937 17.9777L17.4925 13.8731C15.351 13.1093 12.9132 13.9162 11.8404 15.7099L1.98234 31.2787C0.819369 33.0726 1.29574 35.3991 3.09824 36.6993L12.5656 43.4517C12.4153 44.7756 12.3425 45.923 12.3425 47.0002C12.3425 48.0773 12.4155 49.2248 12.5571 50.5487L3.08114 57.3128C1.32572 58.5816 0.844918 60.8336 1.96504 62.7097L11.8102 78.255C12.8788 80.041 15.2907 80.8556 17.5052 80.1232L28.6764 76.0304C30.8137 77.4365 33.0626 78.6271 35.3843 79.5827L37.0838 90.3927C37.3628 92.449 39.3198 94 41.6329 94H61.3745C63.6878 94 65.6448 92.449 65.9194 90.4319L67.6231 79.5827C69.872 78.6545 72.0821 77.4834 74.3181 76.0264L85.5194 80.131C87.6524 80.8868 90.0986 80.0878 91.1715 78.2941L101.068 62.6705C102.163 60.8376 101.682 58.5855 99.9138 57.3047ZM97.3173 60.7514L87.0945 76.4885L74.8076 71.9844C74.1123 71.7297 73.3227 71.8278 72.7218 72.235C70.0609 74.0524 67.4903 75.4192 64.8552 76.4024C64.1513 76.6647 63.6492 77.2484 63.5419 77.9377L61.3747 90.0834L41.3454 89.8758L39.4699 77.9416C39.3583 77.2522 38.8606 76.6688 38.1567 76.4062C35.4143 75.3801 32.7749 73.9819 30.3071 72.2506C29.9251 71.9803 29.4616 71.8432 28.9981 71.8432C28.7277 71.8432 28.4574 71.8863 28.1956 71.9842L15.5566 76.3355L5.71147 60.7903C5.62134 60.6375 5.63844 60.4613 5.74144 60.3869L16.1573 52.9571C16.7496 52.5341 17.0586 51.8526 16.9642 51.1711C16.7367 49.5299 16.6337 48.2022 16.6337 46.9998C16.6337 45.7975 16.7409 44.4736 16.9642 42.8286C17.0586 42.1432 16.7496 41.4656 16.1573 41.0426L5.69034 33.2525L15.9131 17.5154L28.2001 22.0195C28.8995 22.278 29.6849 22.1801 30.29 21.7689C32.9465 19.9476 35.5215 18.5846 38.1567 17.6015C38.8606 17.3351 39.3583 16.7516 39.4657 16.0661L41.6373 3.91661L61.6708 4.12811L63.5419 16.0661C63.6536 16.7555 64.1513 17.339 64.8552 17.6015C67.5933 18.6238 70.2327 20.022 72.7047 21.7571C73.3098 22.1801 74.1039 22.282 74.812 22.0195L87.451 17.6681L97.2962 33.2134C97.3863 33.3661 97.3692 33.5385 97.2662 33.6129L86.8503 41.0428C86.2581 41.4658 85.9491 42.1434 86.0434 42.8287C86.2066 44.0194 86.3739 45.449 86.3739 47C86.3739 48.5549 86.2066 49.9806 86.0434 51.1713C85.9491 51.8528 86.2581 52.5342 86.8503 52.9572L97.2533 60.3832C97.3646 60.4655 97.3861 60.6418 97.3173 60.7514Z" fill="white"/>
<path d="M51.5038 27.4166C39.6717 27.4166 30.0454 36.2017 30.0454 47C30.0454 57.7982 39.6717 66.5834 51.5038 66.5834C63.3359 66.5834 72.9622 57.7982 72.9622 47C72.9622 36.2017 63.3359 27.4166 51.5038 27.4166ZM51.5038 62.6666C42.0365 62.6666 34.3372 55.6401 34.3372 47C34.3372 38.3599 42.0365 31.3334 51.5038 31.3334C60.9712 31.3334 68.6704 38.3599 68.6704 47C68.6704 55.6401 60.9712 62.6666 51.5038 62.6666Z" fill="white"/>
</svg>
